<svg width="150" height="160" viewBox="0 0 150 160" fill="none" xmlns="http://www.w3.org/2000/svg">
<path fill-rule="evenodd" clip-rule="evenodd" d="M0 75.8335C0 34.4168 33.5833 0.833496 75 0.833496C116.417 0.833496 150 34.4168 150 75.8335V134.167C150 148 138.833 159.167 125 159.167H100V92.5002H133.333V75.8335C133.333 43.5835 107.25 17.5002 75 17.5002C42.75 17.5002 16.6667 43.5835 16.6667 75.8335V92.5002H50V159.167H25C11.1667 159.167 0 148 0 134.167V75.8335ZM33.3333 109.167V142.5H25C20.4167 142.5 16.6667 138.75 16.6667 134.167V109.167H33.3333ZM133.333 109.167V134.167C133.333 138.75 129.583 142.5 125 142.5H116.667V109.167H133.333Z" fill="#4BE1E7"/>
<path fill-rule="evenodd" clip-rule="evenodd" d="M0 75.8335C0 34.4168 33.5833 0.833496 75 0.833496C116.417 0.833496 150 34.4168 150 75.8335V134.167C150 148 138.833 159.167 125 159.167H100V92.5002H133.333V75.8335C133.333 43.5835 107.25 17.5002 75 17.5002C42.75 17.5002 16.6667 43.5835 16.6667 75.8335V92.5002H50V159.167H25C11.1667 159.167 0 148 0 134.167V75.8335ZM33.3333 109.167V142.5H25C20.4167 142.5 16.6667 138.75 16.6667 134.167V109.167H33.3333ZM133.333 109.167V134.167C133.333 138.75 129.583 142.5 125 142.5H116.667V109.167H133.333Z" fill="url(#paint0_linear)"/>
<defs>
<linearGradient id="paint0_linear" x1="75" y1="0.833496" x2="75" y2="130.786" gradientUnits="userSpaceOnUse">
<stop stop-color="#B0DC41"/>
<stop offset="1" stop-color="#B0DC41" stop-opacity="0"/>
</linearGradient>
</defs>
</svg>
