<svg width="18" height="18" viewBox="0 0 18 18" fill="none" xmlns="http://www.w3.org/2000/svg">
<path fill-rule="evenodd" clip-rule="evenodd" d="M9 0C6.51375 0 4.5 2.01375 4.5 4.5C4.5 6.98625 6.51375 9 9 9C11.4862 9 13.5 6.98625 13.5 4.5C13.5 2.01375 11.4862 0 9 0ZM11.3625 4.5C11.3625 3.195 10.305 2.1375 9 2.1375C7.695 2.1375 6.6375 3.195 6.6375 4.5C6.6375 5.805 7.695 6.8625 9 6.8625C10.305 6.8625 11.3625 5.805 11.3625 4.5ZM15.8625 14.625C15.8625 13.905 12.3413 12.2625 9 12.2625C5.65875 12.2625 2.1375 13.905 2.1375 14.625V15.8625H15.8625V14.625ZM0 14.625C0 11.6325 5.99625 10.125 9 10.125C12.0037 10.125 18 11.6325 18 14.625V18H0V14.625Z" fill="#EB5276"/>
<path fill-rule="evenodd" clip-rule="evenodd" d="M9 0C6.51375 0 4.5 2.01375 4.5 4.5C4.5 6.98625 6.51375 9 9 9C11.4862 9 13.5 6.98625 13.5 4.5C13.5 2.01375 11.4862 0 9 0ZM11.3625 4.5C11.3625 3.195 10.305 2.1375 9 2.1375C7.695 2.1375 6.6375 3.195 6.6375 4.5C6.6375 5.805 7.695 6.8625 9 6.8625C10.305 6.8625 11.3625 5.805 11.3625 4.5ZM15.8625 14.625C15.8625 13.905 12.3413 12.2625 9 12.2625C5.65875 12.2625 2.1375 13.905 2.1375 14.625V15.8625H15.8625V14.625ZM0 14.625C0 11.6325 5.99625 10.125 9 10.125C12.0037 10.125 18 11.6325 18 14.625V18H0V14.625Z" fill="url(#paint0_linear)"/>
<defs>
<linearGradient id="paint0_linear" x1="9" y1="0" x2="9" y2="14.7736" gradientUnits="userSpaceOnUse">
<stop stop-color="#FFAA51"/>
<stop offset="1" stop-color="#FFAA51" stop-opacity="0"/>
</linearGradient>
</defs>
</svg>
