<svg width="77" height="75" viewBox="0 0 77 75" fill="none" xmlns="http://www.w3.org/2000/svg">
<path d="M69.3786 2.01048C65.3285 1.82638 57.2284 3.9987 57.2284 14.1607C57.2284 26.8632 53.3624 25.7584 43.4213 27.9676C33.4802 30.1767 29.6142 34.0427 29.6142 41.7747C29.6142 49.5066 24.6436 55.5818 17.4639 55.5818C10.2843 55.5818 2 59.4477 2 68.2843" stroke="#EB5276" stroke-width="4"/>
<path d="M69.3786 2.01048C65.3285 1.82638 57.2284 3.9987 57.2284 14.1607C57.2284 26.8632 53.3624 25.7584 43.4213 27.9676C33.4802 30.1767 29.6142 34.0427 29.6142 41.7747C29.6142 49.5066 24.6436 55.5818 17.4639 55.5818C10.2843 55.5818 2 59.4477 2 68.2843" stroke="url(#paint0_linear)" stroke-width="4"/>
<path d="M76.006 8.0958C71.956 7.91171 63.8558 10.084 63.8558 20.246C63.8558 32.9486 59.9898 31.8438 50.0487 34.0529C40.1076 36.262 36.2416 40.128 36.2416 47.86C36.2416 55.592 31.2711 61.6671 24.0914 61.6671C16.9117 61.6671 8.62744 65.5331 8.62744 74.3696" stroke="#EB5276" stroke-width="4"/>
<path d="M76.006 8.0958C71.956 7.91171 63.8558 10.084 63.8558 20.246C63.8558 32.9486 59.9898 31.8438 50.0487 34.0529C40.1076 36.262 36.2416 40.128 36.2416 47.86C36.2416 55.592 31.2711 61.6671 24.0914 61.6671C16.9117 61.6671 8.62744 65.5331 8.62744 74.3696" stroke="url(#paint1_linear)" stroke-width="4"/>
<defs>
<linearGradient id="paint0_linear" x1="2" y1="35.1421" x2="57.3013" y2="35.1421" gradientUnits="userSpaceOnUse">
<stop stop-color="#FFAA51"/>
<stop offset="1" stop-color="#FFAA51" stop-opacity="0"/>
</linearGradient>
<linearGradient id="paint1_linear" x1="8.62744" y1="41.2275" x2="63.9287" y2="41.2275" gradientUnits="userSpaceOnUse">
<stop stop-color="#FFAA51"/>
<stop offset="1" stop-color="#FFAA51" stop-opacity="0"/>
</linearGradient>
</defs>
</svg>
