<svg width="18" height="20" viewBox="0 0 18 20" fill="none" xmlns="http://www.w3.org/2000/svg">
<path fill-rule="evenodd" clip-rule="evenodd" d="M15 2H16C17.1 2 18 2.9 18 4V18C18 19.1 17.1 20 16 20H2C0.89 20 0 19.1 0 18L0.01 4C0.01 2.9 0.89 2 2 2H3V0H5V2H13V0H15V2ZM2 8V18H16V8H2ZM16 6H2V4H16V6ZM14 11H9V16H14V11Z" fill="#EB5276"/>
<path fill-rule="evenodd" clip-rule="evenodd" d="M15 2H16C17.1 2 18 2.9 18 4V18C18 19.1 17.1 20 16 20H2C0.89 20 0 19.1 0 18L0.01 4C0.01 2.9 0.89 2 2 2H3V0H5V2H13V0H15V2ZM2 8V18H16V8H2ZM16 6H2V4H16V6ZM14 11H9V16H14V11Z" fill="url(#paint0_linear)"/>
<defs>
<linearGradient id="paint0_linear" x1="9" y1="0" x2="9" y2="16.4151" gradientUnits="userSpaceOnUse">
<stop stop-color="#FFAA51"/>
<stop offset="1" stop-color="#FFAA51" stop-opacity="0"/>
</linearGradient>
</defs>
</svg>
