<svg width="461" height="27" viewBox="0 0 461 27" fill="none" xmlns="http://www.w3.org/2000/svg">
<path d="M0.381728 0.619998H12.6577C15.4657 0.619998 17.6497 1.34 19.2097 2.78C20.7697 4.196 21.5497 6.176 21.5497 8.72C21.5497 11.24 20.7577 13.22 19.1737 14.66C17.6137 16.1 15.4417 16.82 12.6577 16.82H7.00573V26H0.381728V0.619998ZM11.7577 11.852C12.9817 11.852 13.8817 11.6 14.4577 11.096C15.0577 10.592 15.3577 9.812 15.3577 8.756C15.3577 7.7 15.0577 6.92 14.4577 6.416C13.8817 5.888 12.9817 5.624 11.7577 5.624H7.00573V11.852H11.7577ZM26.545 0.619998H33.169V20.636H43.969V26H26.545V0.619998ZM66.1512 20.744H54.9192L52.6512 26H45.9912L57.8352 0.619998H63.0912L74.9712 26H68.4192L66.1512 20.744ZM64.0272 15.776L60.5352 7.64L57.0432 15.776H64.0272ZM100.918 0.619998V26H96.0219L84.4299 11.492V26H78.2739V0.619998H83.0979L94.7259 15.128V0.619998H100.918ZM107.32 0.619998H113.944V26H107.32V0.619998ZM120.335 0.619998H138.011V5.804H126.851V10.484H137.291V15.668H126.851V26H120.335V0.619998ZM142.947 0.619998H149.571V26H142.947V0.619998ZM168.274 26.324C165.634 26.324 163.33 25.784 161.362 24.704C159.418 23.624 157.918 22.1 156.862 20.132C155.83 18.164 155.314 15.884 155.314 13.292C155.314 10.7 155.83 8.432 156.862 6.488C157.918 4.52 159.418 2.996 161.362 1.916C163.33 0.835999 165.634 0.295998 168.274 0.295998C169.93 0.295998 171.526 0.547999 173.062 1.052C174.622 1.556 175.894 2.228 176.878 3.068L174.826 7.748C172.738 6.284 170.602 5.552 168.418 5.552C166.354 5.552 164.77 6.2 163.666 7.496C162.586 8.792 162.046 10.724 162.046 13.292C162.046 15.86 162.586 17.804 163.666 19.124C164.77 20.42 166.354 21.068 168.418 21.068C170.602 21.068 172.738 20.336 174.826 18.872L176.878 23.552C175.894 24.392 174.622 25.064 173.062 25.568C171.526 26.072 169.93 26.324 168.274 26.324ZM198.943 20.744H187.711L185.443 26H178.783L190.627 0.619998H195.883L207.763 26H201.211L198.943 20.744ZM196.819 15.776L193.327 7.64L189.835 15.776H196.819ZM228.891 5.984H221.295V0.619998H243.183V5.984H235.587V26H228.891V5.984ZM258.801 26.324C255.129 26.324 252.333 25.388 250.413 23.516C248.517 21.644 247.569 18.908 247.569 15.308V0.619998H254.049V15.56C254.049 17.384 254.457 18.788 255.273 19.772C256.089 20.756 257.265 21.248 258.801 21.248C260.337 21.248 261.513 20.756 262.329 19.772C263.145 18.788 263.553 17.384 263.553 15.56V0.619998H270.069V15.308C270.069 18.884 269.097 21.62 267.153 23.516C265.233 25.388 262.449 26.324 258.801 26.324ZM285.517 26.324C283.621 26.324 281.749 26.072 279.901 25.568C278.053 25.064 276.553 24.392 275.401 23.552L277.453 18.872C278.677 19.64 279.985 20.228 281.377 20.636C282.769 21.044 284.173 21.248 285.589 21.248C287.029 21.248 288.121 21.056 288.865 20.672C289.633 20.264 290.017 19.7 290.017 18.98C290.017 18.332 289.669 17.804 288.973 17.396C288.301 16.988 287.005 16.58 285.085 16.172C282.709 15.668 280.849 15.068 279.505 14.372C278.161 13.676 277.213 12.86 276.661 11.924C276.133 10.988 275.869 9.836 275.869 8.468C275.869 6.908 276.301 5.516 277.165 4.292C278.053 3.044 279.289 2.072 280.873 1.376C282.481 0.655999 284.317 0.295998 286.381 0.295998C288.205 0.295998 289.969 0.559999 291.673 1.088C293.401 1.592 294.745 2.252 295.705 3.068L293.689 7.748C291.385 6.164 288.961 5.372 286.417 5.372C285.193 5.372 284.209 5.612 283.465 6.092C282.721 6.548 282.349 7.16 282.349 7.928C282.349 8.384 282.481 8.756 282.745 9.044C283.009 9.332 283.501 9.62 284.221 9.908C284.941 10.172 286.009 10.448 287.425 10.736C289.729 11.24 291.541 11.852 292.861 12.572C294.181 13.268 295.117 14.084 295.669 15.02C296.221 15.956 296.497 17.072 296.497 18.368C296.497 20.864 295.537 22.82 293.617 24.236C291.697 25.628 288.997 26.324 285.517 26.324ZM326.456 26.324C323.816 26.324 321.512 25.784 319.544 24.704C317.6 23.624 316.1 22.1 315.044 20.132C314.012 18.164 313.496 15.884 313.496 13.292C313.496 10.7 314.012 8.432 315.044 6.488C316.1 4.52 317.6 2.996 319.544 1.916C321.512 0.835999 323.816 0.295998 326.456 0.295998C328.112 0.295998 329.708 0.547999 331.244 1.052C332.804 1.556 334.076 2.228 335.06 3.068L333.008 7.748C330.92 6.284 328.784 5.552 326.6 5.552C324.536 5.552 322.952 6.2 321.848 7.496C320.768 8.792 320.228 10.724 320.228 13.292C320.228 15.86 320.768 17.804 321.848 19.124C322.952 20.42 324.536 21.068 326.6 21.068C328.784 21.068 330.92 20.336 333.008 18.872L335.06 23.552C334.076 24.392 332.804 25.064 331.244 25.568C329.708 26.072 328.112 26.324 326.456 26.324ZM340.343 0.619998H346.967V20.636H357.767V26H340.343V0.619998ZM379.949 20.744H368.717L366.449 26H359.789L371.633 0.619998H376.889L388.769 26H382.217L379.949 20.744ZM377.825 15.776L374.333 7.64L370.841 15.776H377.825ZM400.865 26.324C398.969 26.324 397.097 26.072 395.249 25.568C393.401 25.064 391.901 24.392 390.749 23.552L392.801 18.872C394.025 19.64 395.333 20.228 396.725 20.636C398.117 21.044 399.521 21.248 400.937 21.248C402.377 21.248 403.469 21.056 404.213 20.672C404.981 20.264 405.365 19.7 405.365 18.98C405.365 18.332 405.017 17.804 404.321 17.396C403.649 16.988 402.353 16.58 400.433 16.172C398.057 15.668 396.197 15.068 394.853 14.372C393.509 13.676 392.561 12.86 392.009 11.924C391.481 10.988 391.217 9.836 391.217 8.468C391.217 6.908 391.649 5.516 392.513 4.292C393.401 3.044 394.637 2.072 396.221 1.376C397.829 0.655999 399.665 0.295998 401.729 0.295998C403.553 0.295998 405.317 0.559999 407.021 1.088C408.749 1.592 410.093 2.252 411.053 3.068L409.037 7.748C406.733 6.164 404.309 5.372 401.765 5.372C400.541 5.372 399.557 5.612 398.813 6.092C398.069 6.548 397.697 7.16 397.697 7.928C397.697 8.384 397.829 8.756 398.093 9.044C398.357 9.332 398.849 9.62 399.569 9.908C400.289 10.172 401.357 10.448 402.773 10.736C405.077 11.24 406.889 11.852 408.209 12.572C409.529 13.268 410.465 14.084 411.017 15.02C411.569 15.956 411.845 17.072 411.845 18.368C411.845 20.864 410.885 22.82 408.965 24.236C407.045 25.628 404.345 26.324 400.865 26.324ZM417.391 0.619998H435.427V5.732H423.835V10.556H434.707V15.632H423.835V20.888H435.427V26H417.391V0.619998ZM449.5 26.324C447.604 26.324 445.732 26.072 443.884 25.568C442.036 25.064 440.536 24.392 439.384 23.552L441.436 18.872C442.66 19.64 443.968 20.228 445.36 20.636C446.752 21.044 448.156 21.248 449.572 21.248C451.012 21.248 452.104 21.056 452.848 20.672C453.616 20.264 454 19.7 454 18.98C454 18.332 453.652 17.804 452.956 17.396C452.284 16.988 450.988 16.58 449.068 16.172C446.692 15.668 444.832 15.068 443.488 14.372C442.144 13.676 441.196 12.86 440.644 11.924C440.116 10.988 439.852 9.836 439.852 8.468C439.852 6.908 440.284 5.516 441.148 4.292C442.036 3.044 443.272 2.072 444.856 1.376C446.464 0.655999 448.3 0.295998 450.364 0.295998C452.188 0.295998 453.952 0.559999 455.656 1.088C457.384 1.592 458.728 2.252 459.688 3.068L457.672 7.748C455.368 6.164 452.944 5.372 450.4 5.372C449.176 5.372 448.192 5.612 447.448 6.092C446.704 6.548 446.332 7.16 446.332 7.928C446.332 8.384 446.464 8.756 446.728 9.044C446.992 9.332 447.484 9.62 448.204 9.908C448.924 10.172 449.992 10.448 451.408 10.736C453.712 11.24 455.524 11.852 456.844 12.572C458.164 13.268 459.1 14.084 459.652 15.02C460.204 15.956 460.48 17.072 460.48 18.368C460.48 20.864 459.52 22.82 457.6 24.236C455.68 25.628 452.98 26.324 449.5 26.324Z" fill="#EB5276"/>
<path d="M0.381728 0.619998H12.6577C15.4657 0.619998 17.6497 1.34 19.2097 2.78C20.7697 4.196 21.5497 6.176 21.5497 8.72C21.5497 11.24 20.7577 13.22 19.1737 14.66C17.6137 16.1 15.4417 16.82 12.6577 16.82H7.00573V26H0.381728V0.619998ZM11.7577 11.852C12.9817 11.852 13.8817 11.6 14.4577 11.096C15.0577 10.592 15.3577 9.812 15.3577 8.756C15.3577 7.7 15.0577 6.92 14.4577 6.416C13.8817 5.888 12.9817 5.624 11.7577 5.624H7.00573V11.852H11.7577ZM26.545 0.619998H33.169V20.636H43.969V26H26.545V0.619998ZM66.1512 20.744H54.9192L52.6512 26H45.9912L57.8352 0.619998H63.0912L74.9712 26H68.4192L66.1512 20.744ZM64.0272 15.776L60.5352 7.64L57.0432 15.776H64.0272ZM100.918 0.619998V26H96.0219L84.4299 11.492V26H78.2739V0.619998H83.0979L94.7259 15.128V0.619998H100.918ZM107.32 0.619998H113.944V26H107.32V0.619998ZM120.335 0.619998H138.011V5.804H126.851V10.484H137.291V15.668H126.851V26H120.335V0.619998ZM142.947 0.619998H149.571V26H142.947V0.619998ZM168.274 26.324C165.634 26.324 163.33 25.784 161.362 24.704C159.418 23.624 157.918 22.1 156.862 20.132C155.83 18.164 155.314 15.884 155.314 13.292C155.314 10.7 155.83 8.432 156.862 6.488C157.918 4.52 159.418 2.996 161.362 1.916C163.33 0.835999 165.634 0.295998 168.274 0.295998C169.93 0.295998 171.526 0.547999 173.062 1.052C174.622 1.556 175.894 2.228 176.878 3.068L174.826 7.748C172.738 6.284 170.602 5.552 168.418 5.552C166.354 5.552 164.77 6.2 163.666 7.496C162.586 8.792 162.046 10.724 162.046 13.292C162.046 15.86 162.586 17.804 163.666 19.124C164.77 20.42 166.354 21.068 168.418 21.068C170.602 21.068 172.738 20.336 174.826 18.872L176.878 23.552C175.894 24.392 174.622 25.064 173.062 25.568C171.526 26.072 169.93 26.324 168.274 26.324ZM198.943 20.744H187.711L185.443 26H178.783L190.627 0.619998H195.883L207.763 26H201.211L198.943 20.744ZM196.819 15.776L193.327 7.64L189.835 15.776H196.819ZM228.891 5.984H221.295V0.619998H243.183V5.984H235.587V26H228.891V5.984ZM258.801 26.324C255.129 26.324 252.333 25.388 250.413 23.516C248.517 21.644 247.569 18.908 247.569 15.308V0.619998H254.049V15.56C254.049 17.384 254.457 18.788 255.273 19.772C256.089 20.756 257.265 21.248 258.801 21.248C260.337 21.248 261.513 20.756 262.329 19.772C263.145 18.788 263.553 17.384 263.553 15.56V0.619998H270.069V15.308C270.069 18.884 269.097 21.62 267.153 23.516C265.233 25.388 262.449 26.324 258.801 26.324ZM285.517 26.324C283.621 26.324 281.749 26.072 279.901 25.568C278.053 25.064 276.553 24.392 275.401 23.552L277.453 18.872C278.677 19.64 279.985 20.228 281.377 20.636C282.769 21.044 284.173 21.248 285.589 21.248C287.029 21.248 288.121 21.056 288.865 20.672C289.633 20.264 290.017 19.7 290.017 18.98C290.017 18.332 289.669 17.804 288.973 17.396C288.301 16.988 287.005 16.58 285.085 16.172C282.709 15.668 280.849 15.068 279.505 14.372C278.161 13.676 277.213 12.86 276.661 11.924C276.133 10.988 275.869 9.836 275.869 8.468C275.869 6.908 276.301 5.516 277.165 4.292C278.053 3.044 279.289 2.072 280.873 1.376C282.481 0.655999 284.317 0.295998 286.381 0.295998C288.205 0.295998 289.969 0.559999 291.673 1.088C293.401 1.592 294.745 2.252 295.705 3.068L293.689 7.748C291.385 6.164 288.961 5.372 286.417 5.372C285.193 5.372 284.209 5.612 283.465 6.092C282.721 6.548 282.349 7.16 282.349 7.928C282.349 8.384 282.481 8.756 282.745 9.044C283.009 9.332 283.501 9.62 284.221 9.908C284.941 10.172 286.009 10.448 287.425 10.736C289.729 11.24 291.541 11.852 292.861 12.572C294.181 13.268 295.117 14.084 295.669 15.02C296.221 15.956 296.497 17.072 296.497 18.368C296.497 20.864 295.537 22.82 293.617 24.236C291.697 25.628 288.997 26.324 285.517 26.324ZM326.456 26.324C323.816 26.324 321.512 25.784 319.544 24.704C317.6 23.624 316.1 22.1 315.044 20.132C314.012 18.164 313.496 15.884 313.496 13.292C313.496 10.7 314.012 8.432 315.044 6.488C316.1 4.52 317.6 2.996 319.544 1.916C321.512 0.835999 323.816 0.295998 326.456 0.295998C328.112 0.295998 329.708 0.547999 331.244 1.052C332.804 1.556 334.076 2.228 335.06 3.068L333.008 7.748C330.92 6.284 328.784 5.552 326.6 5.552C324.536 5.552 322.952 6.2 321.848 7.496C320.768 8.792 320.228 10.724 320.228 13.292C320.228 15.86 320.768 17.804 321.848 19.124C322.952 20.42 324.536 21.068 326.6 21.068C328.784 21.068 330.92 20.336 333.008 18.872L335.06 23.552C334.076 24.392 332.804 25.064 331.244 25.568C329.708 26.072 328.112 26.324 326.456 26.324ZM340.343 0.619998H346.967V20.636H357.767V26H340.343V0.619998ZM379.949 20.744H368.717L366.449 26H359.789L371.633 0.619998H376.889L388.769 26H382.217L379.949 20.744ZM377.825 15.776L374.333 7.64L370.841 15.776H377.825ZM400.865 26.324C398.969 26.324 397.097 26.072 395.249 25.568C393.401 25.064 391.901 24.392 390.749 23.552L392.801 18.872C394.025 19.64 395.333 20.228 396.725 20.636C398.117 21.044 399.521 21.248 400.937 21.248C402.377 21.248 403.469 21.056 404.213 20.672C404.981 20.264 405.365 19.7 405.365 18.98C405.365 18.332 405.017 17.804 404.321 17.396C403.649 16.988 402.353 16.58 400.433 16.172C398.057 15.668 396.197 15.068 394.853 14.372C393.509 13.676 392.561 12.86 392.009 11.924C391.481 10.988 391.217 9.836 391.217 8.468C391.217 6.908 391.649 5.516 392.513 4.292C393.401 3.044 394.637 2.072 396.221 1.376C397.829 0.655999 399.665 0.295998 401.729 0.295998C403.553 0.295998 405.317 0.559999 407.021 1.088C408.749 1.592 410.093 2.252 411.053 3.068L409.037 7.748C406.733 6.164 404.309 5.372 401.765 5.372C400.541 5.372 399.557 5.612 398.813 6.092C398.069 6.548 397.697 7.16 397.697 7.928C397.697 8.384 397.829 8.756 398.093 9.044C398.357 9.332 398.849 9.62 399.569 9.908C400.289 10.172 401.357 10.448 402.773 10.736C405.077 11.24 406.889 11.852 408.209 12.572C409.529 13.268 410.465 14.084 411.017 15.02C411.569 15.956 411.845 17.072 411.845 18.368C411.845 20.864 410.885 22.82 408.965 24.236C407.045 25.628 404.345 26.324 400.865 26.324ZM417.391 0.619998H435.427V5.732H423.835V10.556H434.707V15.632H423.835V20.888H435.427V26H417.391V0.619998ZM449.5 26.324C447.604 26.324 445.732 26.072 443.884 25.568C442.036 25.064 440.536 24.392 439.384 23.552L441.436 18.872C442.66 19.64 443.968 20.228 445.36 20.636C446.752 21.044 448.156 21.248 449.572 21.248C451.012 21.248 452.104 21.056 452.848 20.672C453.616 20.264 454 19.7 454 18.98C454 18.332 453.652 17.804 452.956 17.396C452.284 16.988 450.988 16.58 449.068 16.172C446.692 15.668 444.832 15.068 443.488 14.372C442.144 13.676 441.196 12.86 440.644 11.924C440.116 10.988 439.852 9.836 439.852 8.468C439.852 6.908 440.284 5.516 441.148 4.292C442.036 3.044 443.272 2.072 444.856 1.376C446.464 0.655999 448.3 0.295998 450.364 0.295998C452.188 0.295998 453.952 0.559999 455.656 1.088C457.384 1.592 458.728 2.252 459.688 3.068L457.672 7.748C455.368 6.164 452.944 5.372 450.4 5.372C449.176 5.372 448.192 5.612 447.448 6.092C446.704 6.548 446.332 7.16 446.332 7.928C446.332 8.384 446.464 8.756 446.728 9.044C446.992 9.332 447.484 9.62 448.204 9.908C448.924 10.172 449.992 10.448 451.408 10.736C453.712 11.24 455.524 11.852 456.844 12.572C458.164 13.268 459.1 14.084 459.652 15.02C460.204 15.956 460.48 17.072 460.48 18.368C460.48 20.864 459.52 22.82 457.6 24.236C455.68 25.628 452.98 26.324 449.5 26.324Z" fill="url(#paint0_linear)"/>
<defs>
<linearGradient id="paint0_linear" x1="230" y1="-10" x2="230" y2="30.217" gradientUnits="userSpaceOnUse">
<stop stop-color="#FFAA51"/>
<stop offset="1" stop-color="#FFAA51" stop-opacity="0"/>
</linearGradient>
</defs>
</svg>
