<svg width="164" height="109" viewBox="0 0 164 109" fill="none" xmlns="http://www.w3.org/2000/svg">
<path fill-rule="evenodd" clip-rule="evenodd" d="M81.75 0C106.548 0 127.189 17.6444 131.822 41.1475C149.534 42.3737 163.5 56.9525 163.5 74.9375C163.5 93.74 148.24 109 129.438 109H40.875C18.3256 109 0 90.6744 0 68.125C0 47.0063 16.0094 29.7025 36.515 27.5225C45.0306 11.1725 62.0619 0 81.75 0ZM40.875 95.375H129.438C140.678 95.375 149.875 86.1781 149.875 74.9375C149.875 63.6969 140.678 54.5 129.438 54.5H119.219V51.0938C119.219 30.4519 102.392 13.625 81.75 13.625C69.4875 13.625 58.6556 19.62 51.775 28.7488C69.0788 33.5175 81.75 49.3225 81.75 68.125H68.125C68.125 53.0694 55.9306 40.875 40.875 40.875C25.8194 40.875 13.625 53.0694 13.625 68.125C13.625 83.1806 25.8194 95.375 40.875 95.375Z" fill="#4BE1E7"/>
<path fill-rule="evenodd" clip-rule="evenodd" d="M81.75 0C106.548 0 127.189 17.6444 131.822 41.1475C149.534 42.3737 163.5 56.9525 163.5 74.9375C163.5 93.74 148.24 109 129.438 109H40.875C18.3256 109 0 90.6744 0 68.125C0 47.0063 16.0094 29.7025 36.515 27.5225C45.0306 11.1725 62.0619 0 81.75 0ZM40.875 95.375H129.438C140.678 95.375 149.875 86.1781 149.875 74.9375C149.875 63.6969 140.678 54.5 129.438 54.5H119.219V51.0938C119.219 30.4519 102.392 13.625 81.75 13.625C69.4875 13.625 58.6556 19.62 51.775 28.7488C69.0788 33.5175 81.75 49.3225 81.75 68.125H68.125C68.125 53.0694 55.9306 40.875 40.875 40.875C25.8194 40.875 13.625 53.0694 13.625 68.125C13.625 83.1806 25.8194 95.375 40.875 95.375Z" fill="url(#paint0_linear)"/>
<defs>
<linearGradient id="paint0_linear" x1="81.75" y1="0" x2="81.75" y2="89.4623" gradientUnits="userSpaceOnUse">
<stop stop-color="#B0DC41"/>
<stop offset="1" stop-color="#B0DC41" stop-opacity="0"/>
</linearGradient>
</defs>
</svg>
