<svg width="127" height="130" viewBox="0 0 127 130" fill="none" xmlns="http://www.w3.org/2000/svg">
<path fill-rule="evenodd" clip-rule="evenodd" d="M111.991 65C111.991 67.21 111.796 69.29 111.536 71.37L125.251 82.095C126.486 83.07 126.811 84.825 126.031 86.255L113.031 108.745C112.446 109.785 111.341 110.37 110.236 110.37C109.846 110.37 109.456 110.305 109.066 110.175L92.8806 103.675C89.5006 106.21 85.8606 108.42 81.8956 110.045L79.4256 127.27C79.2306 128.83 77.8656 130 76.2406 130H50.2406C48.6156 130 47.2506 128.83 47.0556 127.27L44.5856 110.045C40.6207 108.42 36.9806 106.275 33.6007 103.675L17.4157 110.175C17.0907 110.305 16.7007 110.37 16.3107 110.37C15.1407 110.37 14.0357 109.785 13.4507 108.745L0.450655 86.255C-0.329345 84.825 -0.00434455 83.07 1.23066 82.095L14.9457 71.37C14.6857 69.29 14.4907 67.145 14.4907 65C14.4907 62.855 14.6857 60.71 14.9457 58.63L1.23066 47.905C-0.00434455 46.93 -0.394345 45.175 0.450655 43.745L13.4507 21.255C14.0357 20.215 15.1407 19.63 16.2457 19.63C16.6357 19.63 17.0257 19.695 17.4157 19.825L33.6007 26.325C36.9806 23.79 40.6207 21.58 44.5856 19.955L47.0556 2.73C47.2506 1.17 48.6156 0 50.2406 0H76.2406C77.8656 0 79.2306 1.17 79.4256 2.73L81.8956 19.955C85.8606 21.58 89.5006 23.725 92.8806 26.325L109.066 19.825C109.391 19.695 109.781 19.63 110.171 19.63C111.341 19.63 112.446 20.215 113.031 21.255L126.031 43.745C126.811 45.175 126.486 46.93 125.251 47.905L111.536 58.63C111.796 60.71 111.991 62.79 111.991 65ZM98.9907 65C98.9907 63.635 98.9257 62.27 98.6657 60.255L97.7557 52.91L103.541 48.36L110.496 42.835L105.946 34.97L97.6907 38.285L90.8007 41.08L84.8857 36.53C82.2857 34.58 79.6857 33.085 76.8907 31.915L70.0007 29.12L68.9607 21.775L67.7257 13H58.6907L57.3907 21.775L56.3507 29.12L49.4607 31.915C46.7957 33.02 44.1307 34.58 41.3357 36.66L35.4857 41.08L28.7257 38.35L20.4707 35.035L15.9207 42.9L22.9407 48.36L28.7257 52.91L27.8157 60.255C27.6207 62.205 27.4907 63.7 27.4907 65C27.4907 66.2999 27.6207 67.7949 27.8157 69.8099L28.7257 77.1549L22.9407 81.7049L15.9207 87.1649L20.4707 95.0299L28.7257 91.7149L35.6157 88.9199L41.5307 93.4699C44.1307 95.4199 46.7307 96.9149 49.5257 98.0849L56.4157 100.88L57.4557 108.225L58.6907 117H67.7907L69.0907 108.225L70.1307 100.88L77.0207 98.0849C79.6857 96.9799 82.3507 95.4199 85.1457 93.3399L90.9957 88.9199L97.7557 91.6499L106.011 94.9649L110.561 87.0999L103.541 81.6399L97.7557 77.0899L98.6657 69.7449C98.8607 67.7949 98.9907 66.365 98.9907 65ZM63.2407 39C48.8757 39 37.2407 50.635 37.2407 65C37.2407 79.365 48.8757 91 63.2407 91C77.6057 91 89.2407 79.365 89.2407 65C89.2407 50.635 77.6057 39 63.2407 39ZM50.2407 65C50.2407 72.15 56.0907 78 63.2407 78C70.3907 78 76.2407 72.15 76.2407 65C76.2407 57.85 70.3907 52 63.2407 52C56.0907 52 50.2407 57.85 50.2407 65Z" fill="#4BE1E7"/>
<path fill-rule="evenodd" clip-rule="evenodd" d="M111.991 65C111.991 67.21 111.796 69.29 111.536 71.37L125.251 82.095C126.486 83.07 126.811 84.825 126.031 86.255L113.031 108.745C112.446 109.785 111.341 110.37 110.236 110.37C109.846 110.37 109.456 110.305 109.066 110.175L92.8806 103.675C89.5006 106.21 85.8606 108.42 81.8956 110.045L79.4256 127.27C79.2306 128.83 77.8656 130 76.2406 130H50.2406C48.6156 130 47.2506 128.83 47.0556 127.27L44.5856 110.045C40.6207 108.42 36.9806 106.275 33.6007 103.675L17.4157 110.175C17.0907 110.305 16.7007 110.37 16.3107 110.37C15.1407 110.37 14.0357 109.785 13.4507 108.745L0.450655 86.255C-0.329345 84.825 -0.00434455 83.07 1.23066 82.095L14.9457 71.37C14.6857 69.29 14.4907 67.145 14.4907 65C14.4907 62.855 14.6857 60.71 14.9457 58.63L1.23066 47.905C-0.00434455 46.93 -0.394345 45.175 0.450655 43.745L13.4507 21.255C14.0357 20.215 15.1407 19.63 16.2457 19.63C16.6357 19.63 17.0257 19.695 17.4157 19.825L33.6007 26.325C36.9806 23.79 40.6207 21.58 44.5856 19.955L47.0556 2.73C47.2506 1.17 48.6156 0 50.2406 0H76.2406C77.8656 0 79.2306 1.17 79.4256 2.73L81.8956 19.955C85.8606 21.58 89.5006 23.725 92.8806 26.325L109.066 19.825C109.391 19.695 109.781 19.63 110.171 19.63C111.341 19.63 112.446 20.215 113.031 21.255L126.031 43.745C126.811 45.175 126.486 46.93 125.251 47.905L111.536 58.63C111.796 60.71 111.991 62.79 111.991 65ZM98.9907 65C98.9907 63.635 98.9257 62.27 98.6657 60.255L97.7557 52.91L103.541 48.36L110.496 42.835L105.946 34.97L97.6907 38.285L90.8007 41.08L84.8857 36.53C82.2857 34.58 79.6857 33.085 76.8907 31.915L70.0007 29.12L68.9607 21.775L67.7257 13H58.6907L57.3907 21.775L56.3507 29.12L49.4607 31.915C46.7957 33.02 44.1307 34.58 41.3357 36.66L35.4857 41.08L28.7257 38.35L20.4707 35.035L15.9207 42.9L22.9407 48.36L28.7257 52.91L27.8157 60.255C27.6207 62.205 27.4907 63.7 27.4907 65C27.4907 66.2999 27.6207 67.7949 27.8157 69.8099L28.7257 77.1549L22.9407 81.7049L15.9207 87.1649L20.4707 95.0299L28.7257 91.7149L35.6157 88.9199L41.5307 93.4699C44.1307 95.4199 46.7307 96.9149 49.5257 98.0849L56.4157 100.88L57.4557 108.225L58.6907 117H67.7907L69.0907 108.225L70.1307 100.88L77.0207 98.0849C79.6857 96.9799 82.3507 95.4199 85.1457 93.3399L90.9957 88.9199L97.7557 91.6499L106.011 94.9649L110.561 87.0999L103.541 81.6399L97.7557 77.0899L98.6657 69.7449C98.8607 67.7949 98.9907 66.365 98.9907 65ZM63.2407 39C48.8757 39 37.2407 50.635 37.2407 65C37.2407 79.365 48.8757 91 63.2407 91C77.6057 91 89.2407 79.365 89.2407 65C89.2407 50.635 77.6057 39 63.2407 39ZM50.2407 65C50.2407 72.15 56.0907 78 63.2407 78C70.3907 78 76.2407 72.15 76.2407 65C76.2407 57.85 70.3907 52 63.2407 52C56.0907 52 50.2407 57.85 50.2407 65Z" fill="url(#paint0_linear)"/>
<defs>
<linearGradient id="paint0_linear" x1="63.2263" y1="0" x2="63.2263" y2="106.698" gradientUnits="userSpaceOnUse">
<stop stop-color="#B0DC41"/>
<stop offset="1" stop-color="#B0DC41" stop-opacity="0"/>
</linearGradient>
</defs>
</svg>
