<svg width="28" height="28" viewBox="0 0 28 28" fill="none" xmlns="http://www.w3.org/2000/svg">
<ellipse cx="13.7375" cy="14" rx="13.7375" ry="14" fill="white"/>
<path d="M11.3047 14.541C10.895 14.541 10.5343 14.5347 10.1735 14.541C9.92284 14.5472 9.80667 14.4724 9.81279 14.1858C9.83113 13.519 9.82501 12.8461 9.81279 12.1793C9.80667 11.9425 9.89839 11.8677 10.1185 11.874C10.4976 11.8802 10.8706 11.874 11.3108 11.874C11.3108 11.6808 11.3047 11.5001 11.3108 11.3194C11.3475 10.5966 11.3108 9.86128 11.4515 9.16338C11.7144 7.87351 12.6988 7.10707 13.9889 7.06345C14.7655 7.03853 15.5359 7.03229 16.3124 7.00114C16.5937 6.98868 16.7221 7.07591 16.716 7.39371C16.6976 8.01683 16.6976 8.64619 16.716 9.26931C16.7221 9.56842 16.6059 9.64942 16.3369 9.64319C15.9272 9.63696 15.5175 9.63696 15.1079 9.66188C14.7043 9.68681 14.4597 9.95475 14.4414 10.3598C14.4231 10.7461 14.4353 11.1262 14.4169 11.5126C14.4047 11.7494 14.472 11.8428 14.7288 11.8304C15.2363 11.8054 15.7438 11.8179 16.2452 11.8241C16.6487 11.8241 16.6732 11.8491 16.6426 12.2541C16.5876 12.9208 16.5081 13.5813 16.4592 14.2481C16.4408 14.4849 16.3308 14.541 16.1229 14.541C15.5787 14.5347 15.0284 14.541 14.4414 14.541C14.4414 14.7154 14.4414 14.8588 14.4414 14.9958C14.4414 17.1705 14.4414 19.3453 14.4414 21.52C14.4414 21.9748 14.4292 21.9873 13.995 21.9935C13.2307 21.9935 12.4664 21.9811 11.7021 21.9998C11.3903 22.006 11.2925 21.8876 11.2925 21.576C11.3047 19.3826 11.2986 17.183 11.2986 14.9896C11.3047 14.8587 11.3047 14.7279 11.3047 14.541Z" fill="#FFAA51"/>
</svg>
