<svg width="184" height="150" viewBox="0 0 184 150" fill="none" xmlns="http://www.w3.org/2000/svg">
<path fill-rule="evenodd" clip-rule="evenodd" d="M167 0H16.9999C8.66658 0 0.333252 8.33333 0.333252 16.6667V133.333C0.333252 142.5 7.83325 150 16.9999 150H167C175.333 150 183.667 141.667 183.667 133.333V16.6667C183.667 8.33333 175.333 0 167 0ZM167 132.667C166.884 132.841 166.687 133.015 166.521 133.161C166.449 133.225 166.384 133.283 166.333 133.333H16.9999V17.3333L17.6666 16.6667H166.25C166.424 16.7828 166.598 16.98 166.744 17.1452L166.745 17.1453C166.808 17.2171 166.866 17.2829 166.917 17.3333V132.667H167ZM62.8332 79.1667L83.6666 104.25L112.833 66.6667L150.333 116.667H33.6666L62.8332 79.1667Z" fill="#4BE1E7"/>
<path fill-rule="evenodd" clip-rule="evenodd" d="M167 0H16.9999C8.66658 0 0.333252 8.33333 0.333252 16.6667V133.333C0.333252 142.5 7.83325 150 16.9999 150H167C175.333 150 183.667 141.667 183.667 133.333V16.6667C183.667 8.33333 175.333 0 167 0ZM167 132.667C166.884 132.841 166.687 133.015 166.521 133.161C166.449 133.225 166.384 133.283 166.333 133.333H16.9999V17.3333L17.6666 16.6667H166.25C166.424 16.7828 166.598 16.98 166.744 17.1452L166.745 17.1453C166.808 17.2171 166.866 17.2829 166.917 17.3333V132.667H167ZM62.8332 79.1667L83.6666 104.25L112.833 66.6667L150.333 116.667H33.6666L62.8332 79.1667Z" fill="url(#paint0_linear)"/>
<defs>
<linearGradient id="paint0_linear" x1="91.9999" y1="0" x2="91.9999" y2="123.113" gradientUnits="userSpaceOnUse">
<stop stop-color="#B0DC41"/>
<stop offset="1" stop-color="#B0DC41" stop-opacity="0"/>
</linearGradient>
</defs>
</svg>
