<svg width="44" height="44" viewBox="0 0 44 44" fill="none" xmlns="http://www.w3.org/2000/svg">
<path fill-rule="evenodd" clip-rule="evenodd" d="M43.75 19.5833V14.75H38.9167V9.91667C38.9167 7.25833 36.7417 5.08333 34.0833 5.08333H29.25V0.25H24.4167V5.08333H19.5833V0.25H14.75V5.08333H9.91667C7.25833 5.08333 5.08333 7.25833 5.08333 9.91667V14.75H0.25V19.5833H5.08333V24.4167H0.25V29.25H5.08333V34.0833C5.08333 36.7417 7.25833 38.9167 9.91667 38.9167H14.75V43.75H19.5833V38.9167H24.4167V43.75H29.25V38.9167H34.0833C36.7417 38.9167 38.9167 36.7417 38.9167 34.0833V29.25H43.75V24.4167H38.9167V19.5833H43.75ZM14.75 14.75H29.25V29.25H14.75V14.75ZM19.5833 24.4167H24.4167V19.5833H19.5833V24.4167ZM9.91667 34.0833H34.0833V9.91667H9.91667V34.0833Z" fill="#4BE1E7"/>
<path fill-rule="evenodd" clip-rule="evenodd" d="M43.75 19.5833V14.75H38.9167V9.91667C38.9167 7.25833 36.7417 5.08333 34.0833 5.08333H29.25V0.25H24.4167V5.08333H19.5833V0.25H14.75V5.08333H9.91667C7.25833 5.08333 5.08333 7.25833 5.08333 9.91667V14.75H0.25V19.5833H5.08333V24.4167H0.25V29.25H5.08333V34.0833C5.08333 36.7417 7.25833 38.9167 9.91667 38.9167H14.75V43.75H19.5833V38.9167H24.4167V43.75H29.25V38.9167H34.0833C36.7417 38.9167 38.9167 36.7417 38.9167 34.0833V29.25H43.75V24.4167H38.9167V19.5833H43.75ZM14.75 14.75H29.25V29.25H14.75V14.75ZM19.5833 24.4167H24.4167V19.5833H19.5833V24.4167ZM9.91667 34.0833H34.0833V9.91667H9.91667V34.0833Z" fill="url(#paint0_linear)"/>
<defs>
<linearGradient id="paint0_linear" x1="22" y1="0.25" x2="22" y2="35.9528" gradientUnits="userSpaceOnUse">
<stop stop-color="#B0DC41"/>
<stop offset="1" stop-color="#B0DC41" stop-opacity="0"/>
</linearGradient>
</defs>
</svg>
