<svg width="54" height="44" viewBox="0 0 54 44" fill="none" xmlns="http://www.w3.org/2000/svg">
<path fill-rule="evenodd" clip-rule="evenodd" d="M5.25008 0.25H48.7501C51.4084 0.25 53.5834 2.425 53.5834 5.08333V34.0833C53.5834 36.7417 51.4084 38.9167 48.7501 38.9167H36.6667V43.75H17.3334V38.9167H5.25008C2.59175 38.9167 0.416748 36.7417 0.416748 34.0833V5.08333C0.416748 2.425 2.59175 0.25 5.25008 0.25ZM5.25008 34.0833H48.7501V5.08333H5.25008V34.0833ZM43.9168 12.3333H17.3334V17.1667H43.9168V12.3333ZM17.3334 22H43.9168V26.8333H17.3334V22ZM14.9167 12.3333H10.0834V17.1667H14.9167V12.3333ZM10.0834 22H14.9167V26.8333H10.0834V22Z" fill="#4BE1E7"/>
<path fill-rule="evenodd" clip-rule="evenodd" d="M5.25008 0.25H48.7501C51.4084 0.25 53.5834 2.425 53.5834 5.08333V34.0833C53.5834 36.7417 51.4084 38.9167 48.7501 38.9167H36.6667V43.75H17.3334V38.9167H5.25008C2.59175 38.9167 0.416748 36.7417 0.416748 34.0833V5.08333C0.416748 2.425 2.59175 0.25 5.25008 0.25ZM5.25008 34.0833H48.7501V5.08333H5.25008V34.0833ZM43.9168 12.3333H17.3334V17.1667H43.9168V12.3333ZM17.3334 22H43.9168V26.8333H17.3334V22ZM14.9167 12.3333H10.0834V17.1667H14.9167V12.3333ZM10.0834 22H14.9167V26.8333H10.0834V22Z" fill="url(#paint0_linear)"/>
<defs>
<linearGradient id="paint0_linear" x1="27.0001" y1="0.25" x2="27.0001" y2="35.9528" gradientUnits="userSpaceOnUse">
<stop stop-color="#B0DC41"/>
<stop offset="1" stop-color="#B0DC41" stop-opacity="0"/>
</linearGradient>
</defs>
</svg>
