<svg width="28" height="28" viewBox="0 0 28 28" fill="none" xmlns="http://www.w3.org/2000/svg">
<ellipse cx="14.2624" cy="14" rx="13.7375" ry="14" fill="white"/>
<path d="M13.778 7.00009C14.8477 7.00009 15.9173 7.00632 16.9869 7.00009C17.9771 6.99386 18.8695 7.29908 19.6396 7.94067C20.3364 8.51997 20.8071 9.25499 21.0088 10.152C21.0821 10.4821 21.131 10.8309 21.131 11.1735C21.1432 13.391 21.1493 15.6023 21.131 17.8198C21.1188 19.4456 20.3914 20.6727 19.0162 21.4825C18.4294 21.8313 17.7754 21.987 17.0908 21.9933C14.8843 21.9933 12.6778 22.012 10.4713 21.987C8.96774 21.9684 7.80642 21.2832 7.00573 19.9813C6.60232 19.3335 6.42507 18.6109 6.41895 17.8448C6.41895 15.6086 6.40062 13.3724 6.42507 11.1361C6.4434 9.52283 7.17687 8.30818 8.546 7.50464C9.14499 7.15582 9.799 7.00009 10.4897 7.00009C11.5838 7.00009 12.6778 7.00009 13.778 7.00009ZM19.823 14.4998C19.823 13.4969 19.823 12.4941 19.823 11.4912C19.823 11.2981 19.823 11.105 19.8047 10.9119C19.7435 10.1021 19.3951 9.44809 18.7778 8.94354C18.2522 8.50751 17.6471 8.32687 16.9747 8.32687C14.9271 8.32687 12.8734 8.32687 10.8258 8.32687C10.6303 8.32687 10.4408 8.32687 10.2452 8.34556C9.46283 8.40785 8.82716 8.7629 8.33207 9.37334C7.89811 9.90903 7.71474 10.5319 7.71474 11.2171C7.71474 13.3101 7.71474 15.403 7.71474 17.4959C7.71474 17.689 7.71474 17.8821 7.73308 18.0752C7.7942 18.8788 8.14259 19.5266 8.7477 20.0374C9.27335 20.4734 9.88457 20.6603 10.5569 20.6603C12.6289 20.6603 14.7071 20.6603 16.7791 20.6603C16.938 20.6603 17.1031 20.6603 17.262 20.6478C18.1605 20.5793 18.8573 20.1433 19.3646 19.3896C19.6885 18.9099 19.8169 18.368 19.8169 17.7887C19.823 16.6862 19.823 15.5961 19.823 14.4998Z" fill="#FFAA51"/>
<path d="M9.98844 14.4191C10.0435 12.2763 11.7793 10.582 13.8513 10.6381C15.9539 10.6941 17.6165 12.4632 17.5614 14.5748C17.5064 16.7176 15.7706 18.4119 13.6985 18.3558C11.5959 18.2997 9.92732 16.5307 9.98844 14.4191ZM13.778 17.029C15.1471 17.0228 16.2657 15.8829 16.2596 14.4938C16.2534 13.0985 15.1471 11.9711 13.778 11.9711C12.4089 11.9648 11.2903 13.1048 11.2903 14.4938C11.2903 15.8891 12.4089 17.029 13.778 17.029Z" fill="#FFAA51"/>
<path d="M17.7204 11.4535C17.1948 11.4535 16.7608 11.005 16.7669 10.4755C16.773 9.93982 17.2131 9.49756 17.7326 9.51002C18.2522 9.51625 18.68 9.95851 18.68 10.4817C18.68 11.0174 18.2461 11.4535 17.7204 11.4535Z" fill="#FFAA51"/>
</svg>
