<svg width="44" height="46" viewBox="0 0 44 46" fill="none" xmlns="http://www.w3.org/2000/svg">
<path fill-rule="evenodd" clip-rule="evenodd" d="M3.28278 10.2429L0.165283 7.12545C9.59028 -2.32372 24.9119 -2.32372 34.3611 7.12545L31.2436 10.2429C23.5345 2.53378 10.992 2.53378 3.28278 10.2429ZM5.16771 45.9615L5.16804 45.9612H34.1677V41.1283H39.0011V18.8466L34.1677 23.68V16.9128L6.74245 44.3838L43.8344 7.22234V45.9615H5.16771ZM34.1677 23.68V41.1283H16.7194L34.1677 23.68ZM6.74245 44.3838L5.16804 45.9612H5.16771L6.74245 44.3838ZM12.587 19.5469L17.2511 24.2111L21.9153 19.5469C19.3295 16.9852 15.1728 16.9852 12.587 19.5469ZM9.49354 16.4539L6.37604 13.3364C12.3694 7.34306 22.1327 7.34306 28.126 13.3364L25.0327 16.4539C20.731 12.1764 13.771 12.1764 9.49354 16.4539Z" fill="#4BE1E7"/>
<path fill-rule="evenodd" clip-rule="evenodd" d="M3.28278 10.2429L0.165283 7.12545C9.59028 -2.32372 24.9119 -2.32372 34.3611 7.12545L31.2436 10.2429C23.5345 2.53378 10.992 2.53378 3.28278 10.2429ZM5.16771 45.9615L5.16804 45.9612H34.1677V41.1283H39.0011V18.8466L34.1677 23.68V16.9128L6.74245 44.3838L43.8344 7.22234V45.9615H5.16771ZM34.1677 23.68V41.1283H16.7194L34.1677 23.68ZM6.74245 44.3838L5.16804 45.9612H5.16771L6.74245 44.3838ZM12.587 19.5469L17.2511 24.2111L21.9153 19.5469C19.3295 16.9852 15.1728 16.9852 12.587 19.5469ZM9.49354 16.4539L6.37604 13.3364C12.3694 7.34306 22.1327 7.34306 28.126 13.3364L25.0327 16.4539C20.731 12.1764 13.771 12.1764 9.49354 16.4539Z" fill="url(#paint0_linear)"/>
<defs>
<linearGradient id="paint0_linear" x1="21.9998" y1="0.0385742" x2="21.9998" y2="37.73" gradientUnits="userSpaceOnUse">
<stop stop-color="#B0DC41"/>
<stop offset="1" stop-color="#B0DC41" stop-opacity="0"/>
</linearGradient>
</defs>
</svg>
