<svg width="50" height="50" viewBox="0 0 50 50" fill="none" xmlns="http://www.w3.org/2000/svg">
<path fill-rule="evenodd" clip-rule="evenodd" d="M5.66659 0.833496H44.3333C46.9916 0.833496 49.1666 3.0085 49.1666 5.66683V34.6668C49.1666 37.3252 46.9916 39.5002 44.3333 39.5002H10.4999L0.833252 49.1668L0.857419 5.66683C0.857419 3.0085 3.00825 0.833496 5.66659 0.833496ZM8.49409 34.6668H44.3332V5.66683H5.66659V37.4943L7.06825 36.0927L8.49409 34.6668ZM21.3749 29.8335H39.4999V25.0002H26.2083L21.3749 29.8335ZM30.7033 13.9318C31.1866 14.4152 31.1866 15.1643 30.7033 15.6477L16.4691 29.8335H10.4999V23.8643L24.7099 9.65433C25.1933 9.171 25.9424 9.171 26.4258 9.65433L30.7033 13.9318Z" fill="#4BE1E7"/>
<path fill-rule="evenodd" clip-rule="evenodd" d="M5.66659 0.833496H44.3333C46.9916 0.833496 49.1666 3.0085 49.1666 5.66683V34.6668C49.1666 37.3252 46.9916 39.5002 44.3333 39.5002H10.4999L0.833252 49.1668L0.857419 5.66683C0.857419 3.0085 3.00825 0.833496 5.66659 0.833496ZM8.49409 34.6668H44.3332V5.66683H5.66659V37.4943L7.06825 36.0927L8.49409 34.6668ZM21.3749 29.8335H39.4999V25.0002H26.2083L21.3749 29.8335ZM30.7033 13.9318C31.1866 14.4152 31.1866 15.1643 30.7033 15.6477L16.4691 29.8335H10.4999V23.8643L24.7099 9.65433C25.1933 9.171 25.9424 9.171 26.4258 9.65433L30.7033 13.9318Z" fill="url(#paint0_linear)"/>
<defs>
<linearGradient id="paint0_linear" x1="24.9999" y1="0.833496" x2="24.9999" y2="40.5033" gradientUnits="userSpaceOnUse">
<stop stop-color="#B0DC41"/>
<stop offset="1" stop-color="#B0DC41" stop-opacity="0"/>
</linearGradient>
</defs>
</svg>
