<svg width="29" height="28" viewBox="0 0 29 28" fill="none" xmlns="http://www.w3.org/2000/svg">
<ellipse cx="14.5" cy="14" rx="13.7375" ry="14" fill="white"/>
<path d="M7.63186 14.4969C7.63186 12.6134 7.62883 10.7299 7.63489 8.84645C7.63489 8.59635 7.62883 8.33698 7.68637 8.09614C7.82569 7.46934 8.39202 7.02472 9.028 7.00619C9.22486 7.00002 9.42171 7.0031 9.61856 7.0031C13.3224 7.0031 17.0263 7.00619 20.7302 7.00002C21.4479 6.99693 22.0112 7.45699 22.1778 8.04365C22.2232 8.21039 22.2474 8.38639 22.2474 8.5593C22.2505 12.527 22.2505 16.4947 22.2505 20.4592C22.2505 21.4411 21.4812 22 20.7423 22C16.8567 21.9876 12.9711 21.9938 9.08554 21.9938C8.39504 21.9938 7.8166 21.5245 7.6682 20.839C7.64095 20.7155 7.63792 20.5828 7.63792 20.4562C7.63186 18.4708 7.63186 16.4854 7.63186 14.4969ZM15.2637 13.3174C15.2364 13.0488 15.2031 12.8172 15.191 12.5826C15.185 12.4529 15.1335 12.4189 15.0154 12.4189C14.5369 12.4251 14.0553 12.4251 13.5768 12.4189C13.4496 12.4158 13.4133 12.459 13.4163 12.5887C13.4375 13.0858 13.4648 13.5861 13.4678 14.0832C13.4739 15.6208 13.4708 17.1585 13.4708 18.6993C13.4708 18.8969 13.4708 18.9 13.6707 18.9C14.2098 18.9 14.7519 18.9 15.291 18.9C15.4878 18.9 15.4878 18.9 15.4878 18.6962C15.4878 17.492 15.4908 16.2878 15.4878 15.0836C15.4878 14.7378 15.609 14.4506 15.8512 14.2159C16.3933 13.6941 17.2322 13.9195 17.4291 14.6451C17.4927 14.8829 17.5078 15.1422 17.5109 15.3923C17.5199 16.4885 17.5139 17.5846 17.5139 18.6807C17.5139 18.8969 17.5139 18.8969 17.7319 18.8969C18.2619 18.8969 18.7919 18.8969 19.3219 18.8969C19.54 18.8969 19.54 18.8969 19.54 18.6807C19.54 17.4982 19.546 16.3125 19.5369 15.1299C19.5339 14.8242 19.5127 14.5124 19.4552 14.2098C19.1675 12.6721 18.0075 12.0978 16.7658 12.3232C16.145 12.4374 15.6544 12.7678 15.2637 13.3174ZM10.3212 15.6764C10.3212 16.6954 10.3242 17.7143 10.3181 18.7301C10.3181 18.8691 10.3575 18.903 10.4908 18.903C11.0541 18.8969 11.6204 18.8969 12.1867 18.903C12.3079 18.903 12.3412 18.8629 12.3412 18.7425C12.3382 16.6892 12.3382 14.639 12.3412 12.5856C12.3412 12.456 12.2958 12.4189 12.1746 12.4189C11.6204 12.4251 11.0662 12.4282 10.5089 12.4158C10.3484 12.4127 10.3181 12.4683 10.3181 12.6165C10.3242 13.6385 10.3212 14.6575 10.3212 15.6764ZM11.3236 11.6748C11.9354 11.6748 12.3806 11.2672 12.3987 10.7022C12.4108 10.2791 12.1867 9.89935 11.8233 9.73571C11.4114 9.55045 10.8815 9.62764 10.5756 9.91788C10.2757 10.205 10.1819 10.6527 10.3393 11.0511C10.4938 11.4494 10.8542 11.6779 11.3236 11.6748Z" fill="#FFAA51"/>
</svg>
