<svg width="44" height="44" viewBox="0 0 44 44" fill="none" xmlns="http://www.w3.org/2000/svg">
<path fill-rule="evenodd" clip-rule="evenodd" d="M38.9167 0.25H5.08333C2.425 0.25 0.25 2.425 0.25 5.08333V38.9167C0.25 41.575 2.425 43.75 5.08333 43.75H38.9167C41.575 43.75 43.75 41.575 43.75 38.9167V5.08333C43.75 2.425 41.575 0.25 38.9167 0.25ZM38.9167 38.9167H5.08333V5.08333H38.9167V38.9167ZM14.75 17.1667H9.91667V34.0833H14.75V17.1667ZM19.5833 9.91667H24.4167V34.0833H19.5833V9.91667ZM34.0833 24.4167H29.25V34.0833H34.0833V24.4167Z" fill="#4BE1E7"/>
<path fill-rule="evenodd" clip-rule="evenodd" d="M38.9167 0.25H5.08333C2.425 0.25 0.25 2.425 0.25 5.08333V38.9167C0.25 41.575 2.425 43.75 5.08333 43.75H38.9167C41.575 43.75 43.75 41.575 43.75 38.9167V5.08333C43.75 2.425 41.575 0.25 38.9167 0.25ZM38.9167 38.9167H5.08333V5.08333H38.9167V38.9167ZM14.75 17.1667H9.91667V34.0833H14.75V17.1667ZM19.5833 9.91667H24.4167V34.0833H19.5833V9.91667ZM34.0833 24.4167H29.25V34.0833H34.0833V24.4167Z" fill="url(#paint0_linear)"/>
<defs>
<linearGradient id="paint0_linear" x1="22" y1="0.25" x2="22" y2="35.9528" gradientUnits="userSpaceOnUse">
<stop stop-color="#B0DC41"/>
<stop offset="1" stop-color="#B0DC41" stop-opacity="0"/>
</linearGradient>
</defs>
</svg>
