<svg width="360" height="86" viewBox="0 0 360 86" fill="none" xmlns="http://www.w3.org/2000/svg">
<path d="M103.35 31.787C103.35 24.9077 103.429 18.1075 103.271 11.3073C103.192 8.6979 103.746 7.59089 106.671 7.66996C113.155 7.8281 113.155 7.59089 113.155 14.0748C113.155 26.8845 113.234 39.6151 113.155 52.4248C113.076 66.4206 102.718 77.3326 89.1963 77.7279C75.5959 78.1233 64.2095 67.923 63.4978 54.1644C62.9443 44.8339 66.8188 37.243 74.647 31.9451C82.3961 26.8054 90.6196 26.4891 99.0803 30.1265C100.345 30.68 101.373 31.866 103.35 31.787ZM88.4055 67.6857C96.55 67.6857 103.192 60.9646 103.271 52.8202C103.35 44.5967 96.4709 37.6383 88.2474 37.7174C79.9448 37.7174 73.3818 44.5967 73.4609 52.9783C73.619 61.2018 80.182 67.7648 88.4055 67.6857Z" fill="white"/>
<path d="M234.136 57.4855C228.838 57.4855 223.619 57.5646 218.321 57.4065C215 57.3274 215.158 58.5135 216.503 60.8066C220.535 67.5277 229.312 69.3464 237.457 65.0765C238.406 64.523 239.354 62.7834 240.857 64.2858C242.834 66.3416 244.889 68.3975 246.708 70.6115C247.104 71.086 246.155 71.6395 245.68 72.0348C238.01 78.5187 223.224 79.2304 214.368 73.5372C204.8 67.3696 200.688 56.3785 203.93 45.3084C207.33 33.5267 220.061 25.9357 232.396 28.3079C245.443 30.8382 254.141 41.9874 253.034 54.5599C252.797 57.0111 251.848 57.5646 249.555 57.5646C244.415 57.4065 239.275 57.4855 234.136 57.4855ZM215.475 48.076C223.145 48.076 230.736 48.076 238.326 48.076C240.303 48.076 240.541 47.4434 239.75 45.7038C237.694 41.0385 232.317 37.7966 226.94 38.1129C221.405 38.5082 216.977 42.2246 215.475 48.076Z" fill="white"/>
<path d="M39.1437 57.4859C34.004 57.4859 28.8643 57.4859 23.7246 57.4859C22.6966 57.4859 21.3524 57.0115 20.7989 58.0394C20.1663 59.2255 21.2733 60.2534 21.9059 61.2023C25.7805 67.3699 33.9249 69.584 41.1205 65.6303C44.7578 63.6535 46.4974 64.3652 48.8695 67.0536C52.5859 71.2445 52.7441 71.0863 47.6835 73.8538C33.0551 81.7611 15.9755 76.5423 9.88695 62.3093C5.85427 52.9788 8.06829 42.0668 15.3429 35.0294C23.0129 27.6757 34.3993 25.778 43.888 30.2851C53.3767 34.7922 58.7536 44.0436 58.0419 54.323C57.8838 56.7743 57.2512 57.7231 54.5627 57.565C49.423 57.3278 44.2834 57.4859 39.1437 57.4859ZM45.3113 48.0763C43.8089 42.225 39.3809 38.5086 33.7668 38.1132C28.4689 37.7179 23.092 41.0389 21.1152 45.7042C20.5617 46.9693 20.1663 47.9972 22.1431 48.0763C29.8131 48.0763 37.5622 48.0763 45.3113 48.0763Z" fill="white"/>
<path d="M341.516 72.9842C334.637 77.1751 328.153 78.6774 321.115 77.1751C309.017 74.6447 300.003 62.4676 301.584 50.3696C303.403 36.532 314.236 27.2014 327.836 27.834C340.409 28.3875 350.925 39.0623 351.163 51.7138C351.321 59.3838 351.084 66.9747 351.242 74.6447C351.321 77.3332 350.451 77.8867 347.921 77.8867C346.339 77.8867 346.893 77.8867 345.548 77.8867C342.465 77.8076 340.646 77.4123 341.516 72.9842ZM311.547 52.6627C311.547 61.0443 318.189 67.7655 326.571 67.6864C334.716 67.6073 341.358 60.9653 341.437 52.8208C341.516 44.5182 334.637 37.639 326.334 37.718C318.11 37.7971 311.547 44.4392 311.547 52.6627Z" fill="white"/>
<path d="M268.137 48.3128C273.039 43.094 277.388 38.7451 281.263 34.0798C283.872 30.9169 284.109 30.0471 287.984 30.0471C290.198 30.0471 295.18 30.1262 298.58 30.1262C294.626 34.238 291.384 37.7171 288.142 41.1963C281.816 47.9174 281.816 47.9174 286.956 55.6665C291.621 62.783 296.287 69.8995 301.505 77.7276C297.235 77.7276 293.756 77.6486 290.277 77.7276C288.379 77.7276 287.905 76.2253 287.193 75.1183C283.082 68.7134 278.97 62.2295 274.937 55.9037C269.165 59.3038 267.583 64.1272 267.979 70.5321C268.532 78.0439 268.137 77.9649 260.546 77.8067C258.332 77.7276 257.62 77.0951 257.62 74.8811C257.778 66.7366 257.699 58.5922 257.699 50.3687C257.699 39.5358 257.778 28.782 257.62 17.9491C257.541 15.1025 258.095 14.0745 261.179 14.1536C268.058 14.3908 268.058 14.1536 268.058 20.9538C268.137 29.6518 268.137 38.4288 268.137 48.3128Z" fill="white"/>
<path d="M118.295 43.6479C118.295 38.5873 118.374 34.6337 118.216 30.6801C118.137 28.5452 118.69 27.7544 121.062 27.6754C128.179 27.5963 128.179 27.4381 128.179 34.6337C128.179 40.5641 128.1 46.4945 128.179 52.425C128.337 61.1229 134.742 67.6068 143.045 67.6859C151.505 67.765 157.989 61.1229 158.068 52.2668C158.147 45.1503 158.147 38.0338 158.068 30.9173C158.068 28.7033 158.385 27.6754 160.994 27.6754C168.031 27.6754 168.11 27.5172 168.031 34.7128C168.031 41.6711 168.269 48.7086 167.715 55.6669C166.766 67.765 156.408 77.2536 144.31 77.7281C132.054 78.2025 121.142 69.7418 118.769 57.8809C117.821 52.8203 118.532 47.6806 118.295 43.6479Z" fill="white"/>
<path d="M173.013 32.5783C173.013 25.4618 173.092 18.3453 172.934 11.2288C172.855 8.54033 173.566 7.59147 176.413 7.67054C182.818 7.82868 182.818 7.67054 182.818 14.1545C182.818 17.7127 182.897 21.271 182.739 24.8292C182.66 27.0432 183.292 27.913 185.585 27.8339C188.906 27.6758 192.148 27.8339 195.469 27.7549C197.13 27.6758 197.683 28.2293 197.762 29.9689C198.316 37.797 198.395 37.797 190.804 37.797C182.818 37.797 182.739 37.797 182.818 45.8624C182.818 49.2625 182.422 52.6626 183.292 56.0627C184.795 62.1513 188.59 66.1049 194.6 67.291C197.367 67.8445 197.762 68.9515 197.762 71.4027C197.683 78.5983 197.525 78.7564 190.567 76.7796C180.604 73.854 173.171 64.3653 172.934 53.9278C172.855 46.8113 173.013 39.6948 173.013 32.5783Z" fill="white"/>
</svg>
