<svg width="236" height="62" viewBox="0 0 236 62" fill="none" xmlns="http://www.w3.org/2000/svg">
<path d="M31.1242 61.2969C48.3137 61.2969 62.2485 47.5751 62.2485 30.6484C62.2485 13.7218 48.3137 0 31.1242 0C13.9348 0 0 13.7218 0 30.6484C0 47.5751 13.9348 61.2969 31.1242 61.2969Z" fill="white"/>
<path d="M31.0894 57.804C46.3391 57.804 58.7013 45.6307 58.7013 30.6142C58.7013 15.5977 46.3391 3.42439 31.0894 3.42439C15.8398 3.42439 3.47754 15.5977 3.47754 30.6142C3.47754 45.6307 15.8398 57.804 31.0894 57.804Z" fill="#67B0D3"/>
<path d="M31.0894 57.804C46.3391 57.804 58.7013 45.6307 58.7013 30.6142C58.7013 15.5977 46.3391 3.42439 31.0894 3.42439C15.8398 3.42439 3.47754 15.5977 3.47754 30.6142C3.47754 45.6307 15.8398 57.804 31.0894 57.804Z" fill="url(#paint0_radial)"/>
<path d="M31.0894 57.804C46.3391 57.804 58.7013 45.6307 58.7013 30.6142C58.7013 15.5977 46.3391 3.42439 31.0894 3.42439C15.8398 3.42439 3.47754 15.5977 3.47754 30.6142C3.47754 45.6307 15.8398 57.804 31.0894 57.804Z" fill="url(#paint1_radial)"/>
<path d="M31.0894 57.804C46.3391 57.804 58.7013 45.6307 58.7013 30.6142C58.7013 15.5977 46.3391 3.42439 31.0894 3.42439C15.8398 3.42439 3.47754 15.5977 3.47754 30.6142C3.47754 45.6307 15.8398 57.804 31.0894 57.804Z" fill="url(#paint2_radial)"/>
<path d="M31.0894 57.804C46.3391 57.804 58.7013 45.6307 58.7013 30.6142C58.7013 15.5977 46.3391 3.42439 31.0894 3.42439C15.8398 3.42439 3.47754 15.5977 3.47754 30.6142C3.47754 45.6307 15.8398 57.804 31.0894 57.804Z" fill="url(#paint3_radial)"/>
<path d="M35.9207 34.4221C31.8519 34.4221 27.7832 34.4221 23.7144 34.4221C22.9146 34.4221 21.8365 34.0111 21.3844 34.833C20.8628 35.7576 21.767 36.5452 22.2538 37.2986C25.3489 42.0927 31.7476 43.8049 37.4856 40.723C40.3372 39.182 41.7282 39.7641 43.6061 41.853C46.562 45.1062 46.7011 45.0035 42.6324 47.1608C31.0521 53.3248 17.5243 49.2497 12.6905 38.1547C9.52593 30.8949 11.2647 22.3681 17.0375 16.8891C23.1232 11.1361 32.1301 9.6636 39.7112 13.225C47.188 16.7179 51.4306 23.9434 50.8742 31.9222C50.7351 33.8057 50.2483 34.559 48.1617 34.4563C44.0582 34.2851 39.9894 34.4221 35.9207 34.4221ZM40.824 27.0253C39.6765 22.4709 36.1641 19.5944 31.678 19.2862C27.4702 19.0122 23.158 21.5463 21.5931 25.2104C21.1758 26.2035 20.8628 27.0253 22.4277 27.0253C28.5482 27.0596 34.634 27.0253 40.824 27.0253Z" fill="white"/>
<path d="M235.988 45.0667C235.951 43.2728 235.951 41.4422 235.951 39.6849C235.951 38.0008 235.951 36.2434 235.914 34.4861C235.765 26.7611 229.259 20.2077 221.414 19.8416C221.153 19.8416 220.893 19.8416 220.67 19.8416C218.588 19.8416 216.618 20.2077 214.833 20.94H207.546C206.653 20.94 205.538 20.94 204.571 20.94C203.753 20.94 203.047 20.94 202.564 20.94C199.441 20.94 198.176 22.1115 196.912 23.6492V20.3542C196.912 18.3406 196.912 16.6198 195.537 15.192C194.124 13.691 192.265 13.6177 190.332 13.5811H190.071C189.96 13.5811 189.885 13.5811 189.774 13.5811C188.175 13.5811 186.874 14.0571 185.944 15.009C184.494 16.4368 184.532 18.2673 184.532 19.0728C184.569 20.6471 184.569 22.2214 184.569 23.8322C182.524 22.0749 179.921 20.7935 177.021 20.2444C176.092 20.0613 175.162 19.9881 174.196 19.9881C170.292 19.9881 166.537 21.4891 163.748 23.9787C163.414 21.4891 161.629 19.9149 159.101 19.9149C159.026 19.9149 158.952 19.9149 158.878 19.9149C158.543 19.9149 158.246 19.9149 157.911 19.9149C157.576 19.9149 157.242 19.9149 156.907 19.9149H156.758C156.758 19.5121 156.758 19.1094 156.758 18.7067C156.758 18.2307 156.758 17.7548 156.758 17.2788C156.758 15.3385 156.758 13.6543 155.42 12.2265C154.007 10.6888 152.185 10.6888 150.289 10.6522H149.917C148.282 10.6522 146.98 11.1282 146.051 12.0801C144.601 13.5445 144.675 15.4117 144.675 16.0341C144.712 17.3155 144.712 18.6335 144.712 19.9149C144.155 19.8782 143.56 19.8782 142.965 19.8782H142.742C141.18 19.8782 139.916 20.3542 138.987 21.2695C137.611 22.6607 137.648 24.418 137.648 25.1136C137.723 28.5917 137.685 32.0331 137.648 34.8888C137.611 36.9757 136.273 38.4035 134.339 38.4035C132.443 38.4035 131.067 36.939 131.067 34.9254C131.03 33.0583 131.03 31.1545 131.067 29.2873C131.067 28.4453 131.067 27.6032 131.067 26.7611C131.067 24.8207 131.067 23.3929 130.175 22.0383C128.725 19.8782 126.308 19.8782 125.044 19.8782C124.784 19.8782 124.487 19.8782 124.152 19.8782H124.04V17.2422C124.04 15.3018 124.04 13.6177 122.665 12.1899C121.252 10.6888 119.467 10.6522 117.571 10.6156H117.162C115.564 10.6156 114.262 11.0916 113.333 12.0435C111.883 13.5079 111.957 15.3385 111.957 16.0341C111.994 17.4253 111.994 18.8165 111.994 20.2444C110.842 19.9881 109.652 19.8416 108.537 19.8416C105.599 19.8416 102.774 20.7203 100.134 22.441C98.275 23.6492 96.7507 25.1136 95.6353 26.7978C94.1109 24.5279 91.9917 22.6607 89.3519 21.4159C87.2327 20.4274 84.9648 19.9149 82.6596 19.9149C78.5699 19.9149 74.7032 21.4525 71.766 24.2716C67.2301 28.4819 65.8545 35.2183 68.3455 40.893C70.8365 46.6044 76.4135 50.1923 82.8827 50.1923C85.7827 50.1923 88.6827 49.4601 91.3225 48.0322L91.3968 47.9956C93.0327 47.1536 94.7058 46.2383 95.0776 44.1148C95.2263 43.1996 95.0776 42.4307 94.7802 41.7351C97.2712 46.8607 102.514 50.2655 108.722 50.2655C108.871 50.2655 109.02 50.2655 109.169 50.2655C114.337 50.1191 118.835 47.4464 121.512 43.3826C124.301 47.5563 129.134 50.2655 134.525 50.2655C134.711 50.2655 134.934 50.2655 135.12 50.2655C140.214 50.0824 144.675 47.4464 147.315 43.529C149.285 46.4213 152.223 48.6546 155.755 49.6797C157.13 50.0825 158.134 50.3387 159.101 50.3387C161.257 50.3387 162.967 49.0573 163.562 47.0071C163.637 46.7142 163.711 46.4213 163.748 46.0918C164.417 46.6776 165.124 47.2634 165.942 47.7393C168.358 49.277 171.519 50.1191 174.791 50.1191C178.657 50.1191 182.301 48.9841 184.829 46.9339C185.424 48.9475 187.171 50.1923 189.625 50.2289H189.7C190.146 50.2289 190.555 50.2289 190.889 50.2289C192.005 50.2289 194.124 50.2289 195.611 48.6546C196.875 47.3 197.024 45.6891 196.95 44.0416C197.656 45.1399 198.362 46.2383 199.069 47.3C199.106 47.3366 199.106 47.3732 199.143 47.4098C200.221 49.2404 201.709 50.1923 203.642 50.1923H203.753C204.423 50.1923 205.055 50.1923 205.724 50.1923C206.207 50.1923 206.691 50.1923 207.174 50.1923C207.732 50.1923 208.326 50.1923 208.921 50.1923H215.837L215.205 49.277C215.911 49.5333 216.655 49.7529 217.398 49.8994C218.476 50.1191 219.555 50.2289 220.596 50.2289C222.38 50.2289 224.128 49.936 225.912 49.3136C227.288 50.2655 228.887 50.2655 229.63 50.2655H230.746C231.452 50.2655 233.274 50.2655 234.687 48.8377C236.062 47.4464 236.025 45.6525 235.988 45.0667ZM94.2225 40.8198C94.2596 40.8198 94.2968 40.8198 94.334 40.7832C94.4455 41.0395 94.5199 41.2592 94.6314 41.5154C94.5199 41.2592 94.3712 41.0395 94.2225 40.8198ZM108.685 38.2937C106.864 38.2937 105.414 36.9024 105.414 35.1085C105.414 34.1932 105.748 33.3145 106.38 32.6921C106.975 32.0698 107.793 31.7403 108.648 31.7403V28.0791V31.7403C109.54 31.7403 110.358 32.1064 110.99 32.7288C111.622 33.3511 111.957 34.1932 111.957 35.0353C111.957 36.7926 110.433 38.2937 108.685 38.2937ZM156.907 35.6576C156.721 34.962 156.758 34.12 156.758 33.0949C156.758 32.6555 156.758 32.2162 156.758 31.7769V31.7403H156.796C157.614 31.7403 158.357 31.7403 159.101 31.667C158.617 33.8637 158.617 36.0238 159.026 38.074C158.208 37.8909 157.353 37.3418 156.907 35.6576ZM220.596 38.2937C219.703 38.2937 218.885 37.9642 218.253 37.3418C217.621 36.7194 217.287 35.8773 217.287 34.9986C217.287 33.2047 218.774 31.7403 220.559 31.7403H220.596C221.451 31.7403 222.269 32.1064 222.938 32.7288C223.57 33.3511 223.942 34.1932 223.905 35.0353C223.905 36.8292 222.418 38.2937 220.596 38.2937Z" fill="white"/>
<path d="M115.712 25.3333C115.712 22.1481 115.749 18.9996 115.675 15.851C115.638 14.6428 115.898 14.1303 117.274 14.1669C120.322 14.2401 120.322 14.1303 120.322 17.1324C120.322 23.0634 120.36 28.9578 120.322 34.8888C120.285 41.369 115.415 46.4213 109.057 46.6044C102.662 46.7874 97.3083 42.0646 96.9737 35.6942C96.7134 31.3741 98.5352 27.8595 102.216 25.4065C105.86 23.0268 109.726 22.8803 113.704 24.5645C114.299 24.8207 114.783 25.3699 115.712 25.3333ZM108.685 41.9548C112.515 41.9548 115.638 38.8428 115.675 35.0719C115.712 31.2643 112.478 28.0425 108.611 28.0791C104.707 28.0791 101.621 31.2643 101.658 35.1451C101.733 38.9526 104.819 41.9914 108.685 41.9548Z" fill="#262524"/>
<path d="M177.207 37.2319C174.716 37.2319 172.262 37.2685 169.771 37.1953C168.21 37.1586 168.284 37.7078 168.916 38.7695C170.812 41.8815 174.939 42.7235 178.769 40.7465C179.215 40.4903 179.661 39.6848 180.367 40.3804C181.297 41.3323 182.263 42.2842 183.119 43.3093C183.305 43.529 182.858 43.7853 182.635 43.9683C179.029 46.9704 172.076 47.2999 167.912 44.6639C163.413 41.8083 161.48 36.7193 163.004 31.5937C164.603 26.1387 170.589 22.624 176.389 23.7223C182.524 24.8939 186.613 30.0561 186.093 35.8773C185.981 37.0122 185.535 37.2685 184.457 37.2685C182.04 37.1953 179.624 37.2319 177.207 37.2319ZM168.433 32.8751C172.039 32.8751 175.608 32.8751 179.178 32.8751C180.107 32.8751 180.219 32.5822 179.847 31.7768C178.88 29.6167 176.352 28.1157 173.824 28.2621C171.221 28.4452 169.139 30.1659 168.433 32.8751Z" fill="#272725"/>
<path d="M85.5225 37.2319C83.1059 37.2319 80.6892 37.2319 78.2725 37.2319C77.7892 37.2319 77.1572 37.0122 76.8969 37.4882C76.5995 38.0373 77.12 38.5133 77.4174 38.9526C79.2392 41.8083 83.0687 42.8334 86.452 41.0028C88.1623 40.0876 88.9802 40.4171 90.0956 41.6618C91.8431 43.6022 91.9174 43.529 89.5379 44.8104C82.6597 48.4715 74.6289 46.0552 71.7661 39.4652C69.87 35.1451 70.911 30.0927 74.3315 26.8343C77.9379 23.4295 83.2918 22.5508 87.7533 24.6377C92.2149 26.7245 94.7431 31.008 94.4085 35.7674C94.3341 36.9024 94.0367 37.3417 92.7726 37.2685C90.3559 37.1587 87.9392 37.2319 85.5225 37.2319ZM88.4226 32.8752C87.7161 30.1659 85.6341 28.4452 82.9943 28.2622C80.5033 28.0791 77.9751 29.6168 77.0456 31.7768C76.7854 32.3626 76.5995 32.8386 77.5289 32.8752C81.1354 32.8752 84.779 32.8752 88.4226 32.8752Z" fill="#272725"/>
<path d="M227.697 44.4076C224.462 46.348 221.414 47.0436 218.105 46.348C212.416 45.1764 208.178 39.5383 208.921 33.9368C209.776 27.5298 214.87 23.2097 221.265 23.5026C227.176 23.7589 232.121 28.7014 232.233 34.5592C232.307 38.1105 232.196 41.6251 232.27 45.1764C232.307 46.4212 231.898 46.6775 230.708 46.6775C229.965 46.6775 230.225 46.6775 229.593 46.6775C228.143 46.6409 227.288 46.4578 227.697 44.4076ZM213.606 34.9985C213.606 38.8793 216.729 41.9913 220.67 41.9546C224.499 41.918 227.622 38.8427 227.66 35.0717C227.697 31.2276 224.462 28.0424 220.558 28.079C216.692 28.1156 213.606 31.191 213.606 34.9985Z" fill="#262524"/>
<path d="M193.194 32.985C195.499 30.5687 197.544 28.5551 199.366 26.395C200.593 24.9306 200.705 24.5279 202.526 24.5279C203.567 24.5279 205.91 24.5645 207.508 24.5645C205.649 26.4683 204.125 28.0791 202.601 29.69C199.626 32.802 199.626 32.802 202.043 36.3899C204.237 39.6849 206.43 42.9799 208.884 46.6044C206.876 46.6044 205.24 46.5678 203.605 46.6044C202.712 46.6044 202.489 45.9088 202.155 45.3962C200.221 42.4307 198.288 39.4286 196.392 36.4997C193.678 38.074 192.934 40.3073 193.12 43.2728C193.38 46.7508 193.194 46.7142 189.625 46.641C188.584 46.6044 188.249 46.3115 188.249 45.2864C188.324 41.5154 188.287 37.7445 188.287 33.9369C188.287 28.9212 188.324 23.9421 188.249 18.9264C188.212 17.6083 188.472 17.1324 189.922 17.169C193.157 17.2788 193.157 17.169 193.157 20.3176C193.194 24.3448 193.194 28.4086 193.194 32.985Z" fill="#242423"/>
<path d="M122.739 30.8249C122.739 28.4818 122.776 26.6513 122.702 24.8207C122.665 23.8322 122.925 23.4661 124.041 23.4295C127.387 23.3929 127.387 23.3196 127.387 26.6513C127.387 29.3971 127.35 32.1429 127.387 34.8888C127.461 38.916 130.473 41.9181 134.376 41.9547C138.355 41.9913 141.403 38.916 141.441 34.8155C141.478 31.5205 141.478 28.2255 141.441 24.9305C141.441 23.9054 141.589 23.4295 142.816 23.4295C146.125 23.4295 146.162 23.3563 146.125 26.6879C146.125 29.9096 146.237 33.168 145.976 36.3898C145.53 41.9913 140.66 46.3847 134.971 46.6043C129.209 46.824 124.078 42.9066 122.962 37.4149C122.516 35.0718 122.851 32.6921 122.739 30.8249Z" fill="#262524"/>
<path d="M148.468 25.6993C148.468 22.4043 148.505 19.1093 148.43 15.8143C148.393 14.5695 148.728 14.1302 150.066 14.1668C153.078 14.24 153.078 14.1668 153.078 17.1689C153.078 18.8164 153.115 20.4639 153.041 22.1114C153.003 23.1365 153.301 23.5393 154.379 23.5026C155.941 23.4294 157.465 23.5026 159.027 23.466C159.807 23.4294 160.068 23.6857 160.105 24.4911C160.365 28.1156 160.402 28.1156 156.833 28.1156C153.078 28.1156 153.041 28.1156 153.078 31.85C153.078 33.4243 152.892 34.9985 153.301 36.5728C154.007 39.3919 155.792 41.2224 158.618 41.7716C159.919 42.0279 160.105 42.5404 160.105 43.6754C160.068 47.007 159.993 47.0802 156.721 46.165C152.037 44.8103 148.542 40.417 148.43 35.5843C148.393 32.2893 148.468 28.9943 148.468 25.6993Z" fill="#242423"/>
<defs>
<radialGradient id="paint0_radial" cx="0" cy="0" r="1" gradientUnits="userSpaceOnUse" gradientTransform="translate(17.2139 7.02002) rotate(59.5143) scale(27.4189 12.8443)">
<stop stop-color="#B0DC41"/>
<stop offset="1" stop-color="#B0DC41" stop-opacity="0"/>
</radialGradient>
<radialGradient id="paint1_radial" cx="0" cy="0" r="1" gradientUnits="userSpaceOnUse" gradientTransform="translate(3.30366 26.1967) rotate(9.09116) scale(28.1745 27.7654)">
<stop stop-color="#FFD25D"/>
<stop offset="1" stop-color="#FFD25D" stop-opacity="0"/>
</radialGradient>
<radialGradient id="paint2_radial" cx="0" cy="0" r="1" gradientUnits="userSpaceOnUse" gradientTransform="translate(11.3021 49.1402) rotate(-43.0114) scale(27.1084 27.0826)">
<stop stop-color="#FFAA51"/>
<stop offset="1" stop-color="#FFAA51" stop-opacity="0"/>
</radialGradient>
<radialGradient id="paint3_radial" cx="0" cy="0" r="1" gradientUnits="userSpaceOnUse" gradientTransform="translate(31.1242 57.7012) rotate(-90) scale(27.0528 27.4728)">
<stop stop-color="#EB5276"/>
<stop offset="1" stop-color="#EB5276" stop-opacity="0"/>
</radialGradient>
</defs>
</svg>
