<svg width="28" height="16" viewBox="0 0 28 16" fill="none" xmlns="http://www.w3.org/2000/svg">
<path fill-rule="evenodd" clip-rule="evenodd" d="M18.2857 16H25.1429V11.4286H27.4286V4.57143H15.2229C13.9086 1.80571 11.1086 0 8 0C3.58857 0 0 3.58857 0 8C0 12.4114 3.58857 16 8 16C11.1086 16 13.92 14.1943 15.2229 11.4286H18.2857V16ZM22.8572 13.7142H20.5714V9.14273H13.6457L13.3829 9.90845C12.5829 12.1827 10.4114 13.7142 8.00001 13.7142C4.84573 13.7142 2.28573 11.1542 2.28573 7.99988C2.28573 4.84559 4.84573 2.28559 8.00001 2.28559C10.4114 2.28559 12.5829 3.81702 13.3829 6.0913L13.6457 6.85702H25.1429V9.14273H22.8572V13.7142ZM8 11.4288C6.11428 11.4288 4.57142 9.8859 4.57142 8.00019C4.57142 6.11447 6.11428 4.57161 8 4.57161C9.88571 4.57161 11.4286 6.11447 11.4286 8.00019C11.4286 9.8859 9.88571 11.4288 8 11.4288ZM6.85715 8.00006C6.85715 7.37149 7.37144 6.8572 8.00001 6.8572C8.62858 6.8572 9.14286 7.37149 9.14286 8.00006C9.14286 8.62863 8.62858 9.14292 8.00001 9.14292C7.37144 9.14292 6.85715 8.62863 6.85715 8.00006Z" fill="#EB5276"/>
<path fill-rule="evenodd" clip-rule="evenodd" d="M18.2857 16H25.1429V11.4286H27.4286V4.57143H15.2229C13.9086 1.80571 11.1086 0 8 0C3.58857 0 0 3.58857 0 8C0 12.4114 3.58857 16 8 16C11.1086 16 13.92 14.1943 15.2229 11.4286H18.2857V16ZM22.8572 13.7142H20.5714V9.14273H13.6457L13.3829 9.90845C12.5829 12.1827 10.4114 13.7142 8.00001 13.7142C4.84573 13.7142 2.28573 11.1542 2.28573 7.99988C2.28573 4.84559 4.84573 2.28559 8.00001 2.28559C10.4114 2.28559 12.5829 3.81702 13.3829 6.0913L13.6457 6.85702H25.1429V9.14273H22.8572V13.7142ZM8 11.4288C6.11428 11.4288 4.57142 9.8859 4.57142 8.00019C4.57142 6.11447 6.11428 4.57161 8 4.57161C9.88571 4.57161 11.4286 6.11447 11.4286 8.00019C11.4286 9.8859 9.88571 11.4288 8 11.4288ZM6.85715 8.00006C6.85715 7.37149 7.37144 6.8572 8.00001 6.8572C8.62858 6.8572 9.14286 7.37149 9.14286 8.00006C9.14286 8.62863 8.62858 9.14292 8.00001 9.14292C7.37144 9.14292 6.85715 8.62863 6.85715 8.00006Z" fill="url(#paint0_linear)"/>
<defs>
<linearGradient id="paint0_linear" x1="13.7143" y1="0" x2="13.7143" y2="13.1321" gradientUnits="userSpaceOnUse">
<stop stop-color="#FFAA51"/>
<stop offset="1" stop-color="#FFAA51" stop-opacity="0"/>
</linearGradient>
</defs>
</svg>
