<svg width="130" height="130" viewBox="0 0 130 130" fill="none" xmlns="http://www.w3.org/2000/svg">
<path fill-rule="evenodd" clip-rule="evenodd" d="M65 0C29.12 0 0 29.12 0 65C0 100.88 29.12 130 65 130C100.88 130 130 100.88 130 65C130 29.12 100.88 0 65 0ZM13.325 64.9998C13.325 61.0348 13.845 57.1348 14.69 53.4298L45.76 84.4998V90.9998C45.76 98.1498 51.61 104 58.7599 104V116.545C33.215 113.295 13.325 91.4548 13.325 64.9998ZM91.2599 91.0005C97.1099 91.0005 101.92 94.8355 103.61 100.101C112.06 90.8705 117.325 78.5205 117.325 65.0005C117.325 43.2255 103.805 24.5055 84.7599 16.8355V19.5005C84.7599 26.6505 78.9099 32.5005 71.7599 32.5005H58.7599V45.5005C58.7599 49.0755 55.8349 52.0005 52.2599 52.0005H39.2599V65.0005H78.2599C81.8349 65.0005 84.7599 67.9255 84.7599 71.5005V91.0005H91.2599Z" fill="#4BE1E7"/>
<path fill-rule="evenodd" clip-rule="evenodd" d="M65 0C29.12 0 0 29.12 0 65C0 100.88 29.12 130 65 130C100.88 130 130 100.88 130 65C130 29.12 100.88 0 65 0ZM13.325 64.9998C13.325 61.0348 13.845 57.1348 14.69 53.4298L45.76 84.4998V90.9998C45.76 98.1498 51.61 104 58.7599 104V116.545C33.215 113.295 13.325 91.4548 13.325 64.9998ZM91.2599 91.0005C97.1099 91.0005 101.92 94.8355 103.61 100.101C112.06 90.8705 117.325 78.5205 117.325 65.0005C117.325 43.2255 103.805 24.5055 84.7599 16.8355V19.5005C84.7599 26.6505 78.9099 32.5005 71.7599 32.5005H58.7599V45.5005C58.7599 49.0755 55.8349 52.0005 52.2599 52.0005H39.2599V65.0005H78.2599C81.8349 65.0005 84.7599 67.9255 84.7599 71.5005V91.0005H91.2599Z" fill="url(#paint0_linear)"/>
<defs>
<linearGradient id="paint0_linear" x1="65" y1="0" x2="65" y2="106.698" gradientUnits="userSpaceOnUse">
<stop stop-color="#B0DC41"/>
<stop offset="1" stop-color="#B0DC41" stop-opacity="0"/>
</linearGradient>
</defs>
</svg>
