<svg width="106" height="100" viewBox="0 0 106 100" fill="none" xmlns="http://www.w3.org/2000/svg">
<path fill-rule="evenodd" clip-rule="evenodd" d="M67.25 99.7568L38.75 99.7568L38.75 76.9093C30.2475 71.9693 24.5 62.8018 24.5 52.2568C24.5 36.5343 37.2775 23.7568 53 23.7568C68.7225 23.7568 81.5 36.5343 81.5 52.2568C81.5 62.8018 75.7525 71.9693 67.25 76.9093L67.25 99.7568ZM48.25 90.2568L48.25 71.4468L43.5 68.6918C37.61 65.2718 34 59.0018 34 52.2568C34 41.7593 42.5025 33.2568 53 33.2568C63.4975 33.2568 72 41.7593 72 52.2568C72 59.0018 68.3425 65.2718 62.5 68.6918L57.75 71.4468L57.75 90.2568L48.25 90.2568ZM91 57.2436L105.25 57.2436L105.25 47.7436L91 47.7436L91 57.2436ZM93.1375 18.816L86.44 12.1185L77.9375 20.6685L84.635 27.366L93.1375 18.816ZM57.75 0.243608L57.75 14.4936L48.25 14.4936L48.25 0.243607L57.75 0.243608ZM15 57.2436L0.749992 57.2436L0.749993 47.7436L15 47.7436L15 57.2436ZM19.6075 12.0727L28.11 20.6227L21.46 27.2727L12.91 18.7702L19.6075 12.0727Z" fill="#4BE1E7"/>
<path fill-rule="evenodd" clip-rule="evenodd" d="M67.25 99.7568L38.75 99.7568L38.75 76.9093C30.2475 71.9693 24.5 62.8018 24.5 52.2568C24.5 36.5343 37.2775 23.7568 53 23.7568C68.7225 23.7568 81.5 36.5343 81.5 52.2568C81.5 62.8018 75.7525 71.9693 67.25 76.9093L67.25 99.7568ZM48.25 90.2568L48.25 71.4468L43.5 68.6918C37.61 65.2718 34 59.0018 34 52.2568C34 41.7593 42.5025 33.2568 53 33.2568C63.4975 33.2568 72 41.7593 72 52.2568C72 59.0018 68.3425 65.2718 62.5 68.6918L57.75 71.4468L57.75 90.2568L48.25 90.2568ZM91 57.2436L105.25 57.2436L105.25 47.7436L91 47.7436L91 57.2436ZM93.1375 18.816L86.44 12.1185L77.9375 20.6685L84.635 27.366L93.1375 18.816ZM57.75 0.243608L57.75 14.4936L48.25 14.4936L48.25 0.243607L57.75 0.243608ZM15 57.2436L0.749992 57.2436L0.749993 47.7436L15 47.7436L15 57.2436ZM19.6075 12.0727L28.11 20.6227L21.46 27.2727L12.91 18.7702L19.6075 12.0727Z" fill="url(#paint0_linear)"/>
<defs>
<linearGradient id="paint0_linear" x1="53" y1="99.7568" x2="53" y2="18.0809" gradientUnits="userSpaceOnUse">
<stop stop-color="#B0DC41"/>
<stop offset="1" stop-color="#B0DC41" stop-opacity="0"/>
</linearGradient>
</defs>
</svg>
