<svg width="44" height="44" viewBox="0 0 44 44" fill="none" xmlns="http://www.w3.org/2000/svg">
<path fill-rule="evenodd" clip-rule="evenodd" d="M41.575 0.25H2.425C1.21667 0.25 0.25 1.21667 0.25 2.425V41.575C0.25 42.5417 1.21667 43.75 2.425 43.75H41.575C42.5417 43.75 43.75 42.5417 43.75 41.575V2.425C43.75 1.21667 42.5417 0.25 41.575 0.25ZM14.75 9.91667H9.91667V14.75H14.75V9.91667ZM34.0833 9.91667H19.5833V14.75H34.0833V9.91667ZM34.0833 19.5833H19.5833V24.4167H34.0833V19.5833ZM19.5833 29.25H34.0833V34.0833H19.5833V29.25ZM9.91667 19.5833H14.75V24.4167H9.91667V19.5833ZM14.75 29.25H9.91667V34.0833H14.75V29.25ZM5.08333 38.9167H38.9167V5.08333H5.08333V38.9167Z" fill="#4BE1E7"/>
<path fill-rule="evenodd" clip-rule="evenodd" d="M41.575 0.25H2.425C1.21667 0.25 0.25 1.21667 0.25 2.425V41.575C0.25 42.5417 1.21667 43.75 2.425 43.75H41.575C42.5417 43.75 43.75 42.5417 43.75 41.575V2.425C43.75 1.21667 42.5417 0.25 41.575 0.25ZM14.75 9.91667H9.91667V14.75H14.75V9.91667ZM34.0833 9.91667H19.5833V14.75H34.0833V9.91667ZM34.0833 19.5833H19.5833V24.4167H34.0833V19.5833ZM19.5833 29.25H34.0833V34.0833H19.5833V29.25ZM9.91667 19.5833H14.75V24.4167H9.91667V19.5833ZM14.75 29.25H9.91667V34.0833H14.75V29.25ZM5.08333 38.9167H38.9167V5.08333H5.08333V38.9167Z" fill="url(#paint0_linear)"/>
<defs>
<linearGradient id="paint0_linear" x1="22" y1="0.25" x2="22" y2="35.9528" gradientUnits="userSpaceOnUse">
<stop stop-color="#B0DC41"/>
<stop offset="1" stop-color="#B0DC41" stop-opacity="0"/>
</linearGradient>
</defs>
</svg>
