<svg width="159" height="130" viewBox="0 0 159 130" fill="none" xmlns="http://www.w3.org/2000/svg">
<path fill-rule="evenodd" clip-rule="evenodd" d="M79.4444 0L0 43.3333L28.8889 59.0778V102.411L79.4444 130L130 102.411V59.0778L144.444 51.2056V101.111H158.889V43.3333L79.4444 0ZM128.7 43.3333L79.4444 70.2L30.1888 43.3333L79.4444 16.4666L128.7 43.3333ZM79.4444 113.533L115.556 93.8166V66.9499L79.4444 86.6666L43.3333 66.9499V93.8166L79.4444 113.533Z" fill="#4BE1E7"/>
<path fill-rule="evenodd" clip-rule="evenodd" d="M79.4444 0L0 43.3333L28.8889 59.0778V102.411L79.4444 130L130 102.411V59.0778L144.444 51.2056V101.111H158.889V43.3333L79.4444 0ZM128.7 43.3333L79.4444 70.2L30.1888 43.3333L79.4444 16.4666L128.7 43.3333ZM79.4444 113.533L115.556 93.8166V66.9499L79.4444 86.6666L43.3333 66.9499V93.8166L79.4444 113.533Z" fill="url(#paint0_linear)"/>
<defs>
<linearGradient id="paint0_linear" x1="79.4444" y1="0" x2="79.4444" y2="106.698" gradientUnits="userSpaceOnUse">
<stop stop-color="#B0DC41"/>
<stop offset="1" stop-color="#B0DC41" stop-opacity="0"/>
</linearGradient>
</defs>
</svg>
