<svg width="50" height="51" viewBox="0 0 50 51" fill="none" xmlns="http://www.w3.org/2000/svg">
<path fill-rule="evenodd" clip-rule="evenodd" d="M20.0001 11.6665C14.6592 11.6665 10.3334 15.9923 10.3334 21.3332C10.3334 26.674 14.6592 30.9998 20.0001 30.9998C25.3409 30.9998 29.6667 26.674 29.6667 21.3332C29.6667 15.9923 25.3409 11.6665 20.0001 11.6665ZM24.8334 21.3332C24.8334 18.6748 22.6584 16.4998 20.0001 16.4998C17.3417 16.4998 15.1667 18.6748 15.1667 21.3332C15.1667 23.9915 17.3417 26.1665 20.0001 26.1665C22.6584 26.1665 24.8334 23.9915 24.8334 21.3332ZM34.5001 43.0832C34.0168 41.3673 26.5251 38.2498 20.0001 38.2498C13.4751 38.2498 5.98341 41.3673 5.50008 43.1073V45.4998H34.5001V43.0832ZM0.666748 43.0832C0.666748 36.6548 13.5476 33.4165 20.0001 33.4165C26.4526 33.4165 39.3334 36.6548 39.3334 43.0832V50.3332H0.666748V43.0832Z" fill="#4BE1E7"/>
<path fill-rule="evenodd" clip-rule="evenodd" d="M20.0001 11.6665C14.6592 11.6665 10.3334 15.9923 10.3334 21.3332C10.3334 26.674 14.6592 30.9998 20.0001 30.9998C25.3409 30.9998 29.6667 26.674 29.6667 21.3332C29.6667 15.9923 25.3409 11.6665 20.0001 11.6665ZM24.8334 21.3332C24.8334 18.6748 22.6584 16.4998 20.0001 16.4998C17.3417 16.4998 15.1667 18.6748 15.1667 21.3332C15.1667 23.9915 17.3417 26.1665 20.0001 26.1665C22.6584 26.1665 24.8334 23.9915 24.8334 21.3332ZM34.5001 43.0832C34.0168 41.3673 26.5251 38.2498 20.0001 38.2498C13.4751 38.2498 5.98341 41.3673 5.50008 43.1073V45.4998H34.5001V43.0832ZM0.666748 43.0832C0.666748 36.6548 13.5476 33.4165 20.0001 33.4165C26.4526 33.4165 39.3334 36.6548 39.3334 43.0832V50.3332H0.666748V43.0832Z" fill="url(#paint0_linear)"/>
<path fill-rule="evenodd" clip-rule="evenodd" d="M28.67 12C28.67 12.408 28.706 12.792 28.754 13.176L26.222 15.156C25.994 15.336 25.934 15.66 26.078 15.924L28.478 20.076C28.586 20.268 28.79 20.376 28.994 20.376C29.066 20.376 29.138 20.364 29.21 20.34L32.198 19.14C32.822 19.608 33.494 20.016 34.226 20.316L34.682 23.496C34.718 23.784 34.97 24 35.27 24H40.07C40.37 24 40.622 23.784 40.658 23.496L41.114 20.316C41.846 20.016 42.518 19.62 43.142 19.14L46.13 20.34C46.19 20.364 46.262 20.376 46.334 20.376C46.55 20.376 46.754 20.268 46.862 20.076L49.262 15.924C49.406 15.66 49.346 15.336 49.118 15.156L46.586 13.176C46.634 12.792 46.67 12.396 46.67 12C46.67 11.604 46.634 11.208 46.586 10.824L49.118 8.844C49.346 8.664 49.418 8.34 49.262 8.076L46.862 3.924C46.754 3.732 46.55 3.624 46.346 3.624C46.274 3.624 46.202 3.636 46.13 3.66L43.142 4.86C42.518 4.392 41.846 3.984 41.114 3.684L40.658 0.504C40.622 0.216 40.37 0 40.07 0H35.27C34.97 0 34.718 0.216 34.682 0.504L34.226 3.684C33.494 3.984 32.822 4.38 32.198 4.86L29.21 3.66C29.15 3.636 29.078 3.624 29.006 3.624C28.79 3.624 28.586 3.732 28.478 3.924L26.078 8.076C25.934 8.34 25.994 8.664 26.222 8.844L28.754 10.824C28.706 11.208 28.67 11.592 28.67 12ZM31.07 11.9999C31.07 11.7479 31.082 11.4959 31.13 11.1239L31.298 9.76792L30.23 8.92792L28.946 7.90792L29.786 6.45592L31.31 7.06792L32.582 7.58392L33.674 6.74392C34.154 6.38392 34.634 6.10792 35.15 5.89192L36.422 5.37592L36.614 4.01992L36.842 2.39992H38.51L38.75 4.01992L38.942 5.37592L40.214 5.89192C40.706 6.09592 41.198 6.38392 41.714 6.76792L42.794 7.58392L44.042 7.07992L45.566 6.46792L46.406 7.91992L45.11 8.92792L44.042 9.76792L44.21 11.1239C44.246 11.4839 44.27 11.7599 44.27 11.9999C44.27 12.2399 44.246 12.5159 44.21 12.8879L44.042 14.2439L45.11 15.0839L46.406 16.0919L45.566 17.5439L44.042 16.9319L42.77 16.4159L41.678 17.2559C41.198 17.6159 40.718 17.8919 40.202 18.1079L38.93 18.6239L38.738 19.9799L38.51 21.5999H36.83L36.59 19.9799L36.398 18.6239L35.126 18.1079C34.634 17.9039 34.142 17.6159 33.626 17.2319L32.546 16.4159L31.298 16.9199L29.774 17.5319L28.934 16.0799L30.23 15.0719L31.298 14.2319L31.13 12.8759C31.094 12.5159 31.07 12.2519 31.07 11.9999ZM37.67 7.19976C40.322 7.19976 42.47 9.34776 42.47 11.9998C42.47 14.6518 40.322 16.7998 37.67 16.7998C35.018 16.7998 32.87 14.6518 32.87 11.9998C32.87 9.34776 35.018 7.19976 37.67 7.19976ZM40.07 12.0001C40.07 13.3201 38.99 14.4001 37.67 14.4001C36.35 14.4001 35.27 13.3201 35.27 12.0001C35.27 10.6801 36.35 9.60008 37.67 9.60008C38.99 9.60008 40.07 10.6801 40.07 12.0001Z" fill="#4BE1E7"/>
<path fill-rule="evenodd" clip-rule="evenodd" d="M28.67 12C28.67 12.408 28.706 12.792 28.754 13.176L26.222 15.156C25.994 15.336 25.934 15.66 26.078 15.924L28.478 20.076C28.586 20.268 28.79 20.376 28.994 20.376C29.066 20.376 29.138 20.364 29.21 20.34L32.198 19.14C32.822 19.608 33.494 20.016 34.226 20.316L34.682 23.496C34.718 23.784 34.97 24 35.27 24H40.07C40.37 24 40.622 23.784 40.658 23.496L41.114 20.316C41.846 20.016 42.518 19.62 43.142 19.14L46.13 20.34C46.19 20.364 46.262 20.376 46.334 20.376C46.55 20.376 46.754 20.268 46.862 20.076L49.262 15.924C49.406 15.66 49.346 15.336 49.118 15.156L46.586 13.176C46.634 12.792 46.67 12.396 46.67 12C46.67 11.604 46.634 11.208 46.586 10.824L49.118 8.844C49.346 8.664 49.418 8.34 49.262 8.076L46.862 3.924C46.754 3.732 46.55 3.624 46.346 3.624C46.274 3.624 46.202 3.636 46.13 3.66L43.142 4.86C42.518 4.392 41.846 3.984 41.114 3.684L40.658 0.504C40.622 0.216 40.37 0 40.07 0H35.27C34.97 0 34.718 0.216 34.682 0.504L34.226 3.684C33.494 3.984 32.822 4.38 32.198 4.86L29.21 3.66C29.15 3.636 29.078 3.624 29.006 3.624C28.79 3.624 28.586 3.732 28.478 3.924L26.078 8.076C25.934 8.34 25.994 8.664 26.222 8.844L28.754 10.824C28.706 11.208 28.67 11.592 28.67 12ZM31.07 11.9999C31.07 11.7479 31.082 11.4959 31.13 11.1239L31.298 9.76792L30.23 8.92792L28.946 7.90792L29.786 6.45592L31.31 7.06792L32.582 7.58392L33.674 6.74392C34.154 6.38392 34.634 6.10792 35.15 5.89192L36.422 5.37592L36.614 4.01992L36.842 2.39992H38.51L38.75 4.01992L38.942 5.37592L40.214 5.89192C40.706 6.09592 41.198 6.38392 41.714 6.76792L42.794 7.58392L44.042 7.07992L45.566 6.46792L46.406 7.91992L45.11 8.92792L44.042 9.76792L44.21 11.1239C44.246 11.4839 44.27 11.7599 44.27 11.9999C44.27 12.2399 44.246 12.5159 44.21 12.8879L44.042 14.2439L45.11 15.0839L46.406 16.0919L45.566 17.5439L44.042 16.9319L42.77 16.4159L41.678 17.2559C41.198 17.6159 40.718 17.8919 40.202 18.1079L38.93 18.6239L38.738 19.9799L38.51 21.5999H36.83L36.59 19.9799L36.398 18.6239L35.126 18.1079C34.634 17.9039 34.142 17.6159 33.626 17.2319L32.546 16.4159L31.298 16.9199L29.774 17.5319L28.934 16.0799L30.23 15.0719L31.298 14.2319L31.13 12.8759C31.094 12.5159 31.07 12.2519 31.07 11.9999ZM37.67 7.19976C40.322 7.19976 42.47 9.34776 42.47 11.9998C42.47 14.6518 40.322 16.7998 37.67 16.7998C35.018 16.7998 32.87 14.6518 32.87 11.9998C32.87 9.34776 35.018 7.19976 37.67 7.19976ZM40.07 12.0001C40.07 13.3201 38.99 14.4001 37.67 14.4001C36.35 14.4001 35.27 13.3201 35.27 12.0001C35.27 10.6801 36.35 9.60008 37.67 9.60008C38.99 9.60008 40.07 10.6801 40.07 12.0001Z" fill="url(#paint1_linear)"/>
<defs>
<linearGradient id="paint0_linear" x1="20.0001" y1="11.6665" x2="20.0001" y2="43.4024" gradientUnits="userSpaceOnUse">
<stop stop-color="#B0DC41"/>
<stop offset="1" stop-color="#B0DC41" stop-opacity="0"/>
</linearGradient>
<linearGradient id="paint1_linear" x1="37.6727" y1="0" x2="37.6727" y2="19.6981" gradientUnits="userSpaceOnUse">
<stop stop-color="#B0DC41"/>
<stop offset="1" stop-color="#B0DC41" stop-opacity="0"/>
</linearGradient>
</defs>
</svg>
