<svg width="28" height="28" viewBox="0 0 28 28" fill="none" xmlns="http://www.w3.org/2000/svg">
<ellipse cx="14.1188" cy="14" rx="13.7375" ry="14" fill="white"/>
<path d="M10.7039 18.7475C8.77522 18.6682 7.58186 17.2291 7.26882 16.1133C7.81927 16.2075 8.36133 16.1968 8.90128 16.0384C7.79196 15.7599 6.94317 15.1325 6.39481 14.1088C6.09437 13.5477 5.9494 12.9459 5.95571 12.2863C6.47675 12.5668 7.0188 12.7296 7.60708 12.7403C6.82341 12.1599 6.29607 11.4061 6.07967 10.4402C5.86327 9.47866 6.00823 8.56848 6.47675 7.70114C8.49369 10.1211 11.0401 11.4404 14.1558 11.6588C14.0739 11.2926 14.0508 10.9499 14.0655 10.603C14.1012 9.78277 14.3743 9.05034 14.8786 8.41429C15.4773 7.65831 16.2505 7.1893 17.1917 7.04795C18.4376 6.85949 19.5196 7.22785 20.4209 8.12946C20.4671 8.17657 20.505 8.19371 20.5743 8.17871C21.3328 8.0181 22.0471 7.73969 22.7215 7.3542C22.7509 7.33707 22.7824 7.31994 22.8223 7.30923C22.5408 8.18514 22.003 8.85546 21.2466 9.35659C21.9651 9.27735 22.6459 9.08461 23.3287 8.78693C23.2993 8.83618 23.2804 8.86831 23.2614 8.89615C22.795 9.57717 22.2341 10.1661 21.5786 10.663C21.5176 10.7079 21.4945 10.7529 21.4966 10.83C21.5407 14.0809 20.4335 16.8607 18.1582 19.1372C16.8304 20.4672 15.2294 21.3067 13.4142 21.7243C12.5507 21.9234 11.6767 22.0134 10.7922 21.9984C8.82984 21.9663 7.0104 21.4266 5.34012 20.3729C5.32331 20.3622 5.30651 20.3494 5.2897 20.3365C5.2876 20.3344 5.2876 20.3301 5.2876 20.3194C7.29193 20.5121 9.10087 19.996 10.7039 18.7475Z" fill="#FFAA51"/>
</svg>
