<svg width="54" height="38" viewBox="0 0 54 38" fill="none" xmlns="http://www.w3.org/2000/svg">
<path fill-rule="evenodd" clip-rule="evenodd" d="M0.416748 19C4.59758 8.39083 14.9167 0.875 27.0001 0.875C39.0834 0.875 49.4026 8.39083 53.5834 19C49.4026 29.6092 39.0834 37.125 27.0001 37.125C14.9167 37.125 4.59758 29.6092 0.416748 19ZM48.3151 19C44.3276 10.8558 36.1592 5.70833 27.0001 5.70833C17.8409 5.70833 9.67257 10.8558 5.68507 19C9.67257 27.1442 17.8409 32.2917 27.0001 32.2917C36.1592 32.2917 44.3276 27.1442 48.3151 19ZM27.0001 12.9583C30.3351 12.9583 33.0417 15.665 33.0417 19C33.0417 22.335 30.3351 25.0417 27.0001 25.0417C23.6651 25.0417 20.9584 22.335 20.9584 19C20.9584 15.665 23.6651 12.9583 27.0001 12.9583ZM16.1251 19C16.1251 13.0067 21.0067 8.125 27.0001 8.125C32.9934 8.125 37.8751 13.0067 37.8751 19C37.8751 24.9933 32.9934 29.875 27.0001 29.875C21.0067 29.875 16.1251 24.9933 16.1251 19Z" fill="#4BE1E7"/>
<path fill-rule="evenodd" clip-rule="evenodd" d="M0.416748 19C4.59758 8.39083 14.9167 0.875 27.0001 0.875C39.0834 0.875 49.4026 8.39083 53.5834 19C49.4026 29.6092 39.0834 37.125 27.0001 37.125C14.9167 37.125 4.59758 29.6092 0.416748 19ZM48.3151 19C44.3276 10.8558 36.1592 5.70833 27.0001 5.70833C17.8409 5.70833 9.67257 10.8558 5.68507 19C9.67257 27.1442 17.8409 32.2917 27.0001 32.2917C36.1592 32.2917 44.3276 27.1442 48.3151 19ZM27.0001 12.9583C30.3351 12.9583 33.0417 15.665 33.0417 19C33.0417 22.335 30.3351 25.0417 27.0001 25.0417C23.6651 25.0417 20.9584 22.335 20.9584 19C20.9584 15.665 23.6651 12.9583 27.0001 12.9583ZM16.1251 19C16.1251 13.0067 21.0067 8.125 27.0001 8.125C32.9934 8.125 37.8751 13.0067 37.8751 19C37.8751 24.9933 32.9934 29.875 27.0001 29.875C21.0067 29.875 16.1251 24.9933 16.1251 19Z" fill="url(#paint0_linear)"/>
<defs>
<linearGradient id="paint0_linear" x1="27.0001" y1="0.875" x2="27.0001" y2="30.6274" gradientUnits="userSpaceOnUse">
<stop stop-color="#B0DC41"/>
<stop offset="1" stop-color="#B0DC41" stop-opacity="0"/>
</linearGradient>
</defs>
</svg>
