<svg width="28" height="28" viewBox="0 0 28 28" fill="none" xmlns="http://www.w3.org/2000/svg">
<ellipse cx="13.8813" cy="14" rx="13.7375" ry="14" fill="white"/>
<path d="M14.5381 22C13.0484 21.9721 11.5875 21.9472 10.1233 21.91C9.33521 21.8883 8.54388 21.8603 7.75576 21.8044C7.06695 21.7548 6.36853 21.7082 5.69254 21.5747C4.47511 21.3357 3.70941 20.5877 3.47234 19.4081C3.32176 18.6445 3.23205 17.8654 3.184 17.0894C3.11352 16.0216 3.08468 14.9507 3.08789 13.8829C3.09109 12.601 3.17439 11.3221 3.37302 10.0526C3.47234 9.41933 3.63893 8.81093 4.09066 8.30808C4.56161 7.7835 5.14149 7.43895 5.85593 7.36445C6.87473 7.25891 7.89352 7.15648 8.91552 7.11613C10.6359 7.05094 12.3596 7.0137 14.0832 7.00128C15.4063 6.99197 16.7295 7.03542 18.0526 7.06957C18.8376 7.0913 19.6225 7.11923 20.4042 7.17821C21.1058 7.22787 21.8106 7.28375 22.4994 7.40791C23.7681 7.6345 24.5402 8.3981 24.7805 9.62109C24.9247 10.3661 25.024 11.1203 25.0721 11.8777C25.1393 12.9517 25.1714 14.0257 25.165 15.1028C25.1586 16.422 25.0817 17.7382 24.851 19.0387C24.7677 19.5075 24.6652 19.9731 24.3961 20.3828C23.9251 21.0967 23.2523 21.5282 22.3873 21.6213C21.3589 21.7331 20.3273 21.8262 19.2957 21.8696C17.7034 21.9379 16.108 21.9596 14.5381 22ZM11.9206 11.2755C11.9206 13.436 11.9206 15.5591 11.9206 17.7102C13.8461 16.6393 15.7491 15.5777 17.6842 14.5006C15.7523 13.4173 13.8461 12.3526 11.9206 11.2755Z" fill="#FFAA51"/>
</svg>
